DenkOne-Regular.ufo
<glyph name="numbersign" format="1">
  <advance width="1319"/>
  <unicode hex="0023"/>
  <outline>
    <contour>
      <point x="283" y="-1" type="curve" smooth="yes"/>
      <point x="354" y="-2"/>
      <point x="381" y="2"/>
      <point x="398" y="48" type="curve" smooth="yes"/>
      <point x="677" y="1334" type="line" smooth="yes"/>
      <point x="689" y="1388"/>
      <point x="667" y="1403"/>
      <point x="553" y="1404" type="curve" smooth="yes"/>
      <point x="430" y="1405"/>
      <point x="424" y="1386"/>
      <point x="405" y="1333" type="curve" smooth="yes"/>
      <point x="197" y="57" type="line" smooth="yes"/>
      <point x="189" y="8"/>
      <point x="195" y="0"/>
    </contour>
    <contour>
      <point x="757" y="-1" type="curve" smooth="yes"/>
      <point x="828" y="-2"/>
      <point x="855" y="2"/>
      <point x="872" y="48" type="curve" smooth="yes"/>
      <point x="1151" y="1334" type="line" smooth="yes"/>
      <point x="1163" y="1388"/>
      <point x="1141" y="1403"/>
      <point x="1027" y="1404" type="curve" smooth="yes"/>
      <point x="904" y="1405"/>
      <point x="888" y="1389"/>
      <point x="879" y="1333" type="curve" smooth="yes"/>
      <point x="671" y="57" type="line" smooth="yes"/>
      <point x="663" y="8"/>
      <point x="669" y="0"/>
    </contour>
    <contour>
      <point x="1187" y="849" type="line"/>
      <point x="1257" y="849"/>
      <point x="1259" y="870"/>
      <point x="1259" y="936" type="curve" smooth="yes"/>
      <point x="1259" y="1010"/>
      <point x="1257" y="1035"/>
      <point x="1187" y="1035" type="curve" smooth="yes"/>
      <point x="214" y="1035" type="line" smooth="yes"/>
      <point x="144" y="1035"/>
      <point x="142" y="1011"/>
      <point x="142" y="937" type="curve" smooth="yes"/>
      <point x="142" y="871"/>
      <point x="144" y="849"/>
      <point x="214" y="849" type="curve" smooth="yes"/>
    </contour>
    <contour>
      <point x="1079" y="341" type="line"/>
      <point x="1149" y="341"/>
      <point x="1151" y="362"/>
      <point x="1151" y="428" type="curve" smooth="yes"/>
      <point x="1151" y="502"/>
      <point x="1149" y="527"/>
      <point x="1079" y="527" type="curve" smooth="yes"/>
      <point x="132" y="527" type="line" smooth="yes"/>
      <point x="62" y="527"/>
      <point x="60" y="503"/>
      <point x="60" y="429" type="curve" smooth="yes"/>
      <point x="60" y="363"/>
      <point x="62" y="341"/>
      <point x="132" y="341" type="curve" smooth="yes"/>
    </contour>
  </outline>
</glyph>
<glyph name="dollar" format="1">
  <advance width="1170"/>
  <unicode hex="0024"/>
  <outline>
    <contour>
      <point x="714" y="1616" type="line"/>
      <point x="719" y="1874" type="line" smooth="yes"/>
      <point x="720" y="1930"/>
      <point x="703" y="1944"/>
      <point x="602" y="1944" type="curve" smooth="yes"/>
      <point x="502" y="1944"/>
      <point x="484" y="1929"/>
      <point x="485" y="1873" type="curve" smooth="yes"/>
      <point x="491" y="1616" type="line"/>
    </contour>
    <contour>
      <point x="511" y="77" type="line"/>
      <point x="518" y="-183" type="line" smooth="yes"/>
      <point x="519" y="-232"/>
      <point x="535" y="-240"/>
      <point x="603" y="-239" type="curve" smooth="yes"/>
      <point x="671" y="-239"/>
      <point x="687" y="-231"/>
      <point x="688" y="-182" type="curve" smooth="yes"/>
      <point x="695" y="77" type="line"/>
    </contour>
    <component base="S"/>
  </outline>
</glyph>
<glyph name="ampersand" format="1">
  <advance width="1237"/>
  <unicode hex="0026"/>
  <outline>
    <contour>
      <point x="589" y="607" type="line"/>
      <point x="481" y="607"/>
      <point x="431" y="585"/>
      <point x="429" y="481" type="curve" smooth="yes"/>
      <point x="423" y="307" type="line" smooth="yes"/>
      <point x="420" y="200"/>
      <point x="473" y="161"/>
      <point x="587" y="161" type="curve" smooth="yes"/>
      <point x="589" y="161" type="line" smooth="yes"/>
      <point x="703" y="161"/>
      <point x="756" y="200"/>
      <point x="753" y="307" type="curve" smooth="yes"/>
      <point x="742" y="673" type="line" smooth="yes"/>
      <point x="740" y="755"/>
      <point x="781" y="765"/>
      <point x="889" y="765" type="curve" smooth="yes"/>
      <point x="1003" y="765"/>
      <point x="1030" y="755"/>
      <point x="1028" y="673" type="curve" smooth="yes"/>
      <point x="1024" y="278" type="line" smooth="yes"/>
      <point x="1019" y="122"/>
      <point x="916" y="-12"/>
      <point x="589" y="-12" type="curve" smooth="yes"/>
      <point x="258" y="-12"/>
      <point x="158" y="122"/>
      <point x="152" y="278" type="curve" smooth="yes"/>
      <point x="145" y="427" type="line" smooth="yes"/>
      <point x="139" y="569"/>
      <point x="211" y="618"/>
      <point x="344" y="694" type="curve"/>
      <point x="344" y="702" type="line"/>
      <point x="169" y="776"/>
      <point x="135" y="871"/>
      <point x="132" y="981" type="curve" smooth="yes"/>
      <point x="121" y="1402" type="line" smooth="yes"/>
      <point x="115" y="1623"/>
      <point x="380" y="1696"/>
      <point x="589" y="1696" type="curve" smooth="yes"/>
      <point x="796" y="1696"/>
      <point x="1063" y="1623"/>
      <point x="1055" y="1402" type="curve" smooth="yes"/>
      <point x="1041" y="1044" type="line" smooth="yes"/>
      <point x="1038" y="962"/>
      <point x="1006" y="952"/>
      <point x="889" y="952" type="curve" smooth="yes"/>
      <point x="771" y="952"/>
      <point x="735" y="962"/>
      <point x="732" y="1044" type="curve" smooth="yes"/>
      <point x="719" y="1384" type="line" smooth="yes"/>
      <point x="715" y="1488"/>
      <point x="680" y="1517"/>
      <point x="589" y="1517" type="curve" smooth="yes"/>
      <point x="496" y="1517"/>
      <point x="461" y="1488"/>
      <point x="457" y="1384" type="curve" smooth="yes"/>
      <point x="443" y="929" type="line" smooth="yes"/>
      <point x="439" y="817"/>
      <point x="484" y="783"/>
      <point x="587" y="783" type="curve" smooth="yes"/>
      <point x="1132" y="783" type="line" smooth="yes"/>
      <point x="1203" y="783"/>
      <point x="1205" y="760"/>
      <point x="1205" y="695" type="curve" smooth="yes"/>
      <point x="1205" y="630"/>
      <point x="1203" y="607"/>
      <point x="1133" y="607" type="curve" smooth="yes"/>
    </contour>
  </outline>
</glyph>
<glyph name="quotesingle" format="1">
  <advance width="498"/>
  <unicode hex="0027"/>
  <outline>
    <contour>
      <point x="249" y="1016" type="curve" smooth="yes"/>
      <point x="341" y="1016"/>
      <point x="352" y="1023"/>
      <point x="357" y="1085" type="curve" smooth="yes"/>
      <point x="397" y="1640" type="line" smooth="yes"/>
      <point x="399" y="1710"/>
      <point x="374" y="1724"/>
      <point x="249" y="1724" type="curve" smooth="yes"/>
      <point x="124" y="1724"/>
      <point x="99" y="1710"/>
      <point x="101" y="1640" type="curve" smooth="yes"/>
      <point x="141" y="1085" type="line" smooth="yes"/>
      <point x="146" y="1023"/>
      <point x="157" y="1016"/>
    </contour>
  </outline>
</glyph>
<glyph name="asterisk" format="1">
  <advance width="1018"/>
  <unicode hex="002A"/>
  <outline>
    <contour>
      <point x="510" y="1274" type="line"/>
      <point x="624" y="1112" type="line" smooth="yes"/>
      <point x="654" y="1072"/>
      <point x="675" y="1083"/>
      <point x="730" y="1123" type="curve" smooth="yes"/>
      <point x="786" y="1163"/>
      <point x="794" y="1181"/>
      <point x="765" y="1222" type="curve" smooth="yes"/>
      <point x="662" y="1362" type="line"/>
      <point x="836" y="1405" type="line" smooth="yes"/>
      <point x="891" y="1419"/>
      <point x="905" y="1434"/>
      <point x="876" y="1530" type="curve" smooth="yes"/>
      <point x="847" y="1625"/>
      <point x="825" y="1637"/>
      <point x="771" y="1619" type="curve" smooth="yes"/>
      <point x="617" y="1560" type="line"/>
      <point x="628" y="1803" type="line" smooth="yes"/>
      <point x="631" y="1860"/>
      <point x="612" y="1875"/>
      <point x="511" y="1875" type="curve" smooth="yes"/>
      <point x="411" y="1875"/>
      <point x="391" y="1859"/>
      <point x="394" y="1802" type="curve" smooth="yes"/>
      <point x="405" y="1558" type="line"/>
      <point x="246" y="1619" type="line" smooth="yes"/>
      <point x="192" y="1637"/>
      <point x="170" y="1625"/>
      <point x="141" y="1530" type="curve" smooth="yes"/>
      <point x="112" y="1434"/>
      <point x="127" y="1420"/>
      <point x="181" y="1405" type="curve" smooth="yes"/>
      <point x="357" y="1361" type="line"/>
      <point x="255" y="1223" type="line" smooth="yes"/>
      <point x="226" y="1182"/>
      <point x="234" y="1163"/>
      <point x="290" y="1123" type="curve" smooth="yes"/>
      <point x="345" y="1083"/>
      <point x="366" y="1072"/>
      <point x="396" y="1112" type="curve" smooth="yes"/>
    </contour>
  </outline>
</glyph>
<glyph name="comma" format="1">
  <advance width="619"/>
  <unicode hex="002C"/>
  <outline>
    <contour>
      <point x="196" y="-278" type="curve" smooth="yes"/>
      <point x="196" y="-309"/>
      <point x="224" y="-313"/>
      <point x="276" y="-313" type="curve" smooth="yes"/>
      <point x="341" y="-313"/>
      <point x="350" y="-305"/>
      <point x="377" y="-237" type="curve" smooth="yes"/>
      <point x="464" y="0" type="line" smooth="yes"/>
      <point x="476" y="31"/>
      <point x="480" y="47"/>
      <point x="482" y="89" type="curve" smooth="yes"/>
      <point x="490" y="252" type="line" smooth="yes"/>
      <point x="492" y="309"/>
      <point x="472" y="325"/>
      <point x="318" y="325" type="curve" smooth="yes"/>
      <point x="155" y="325"/>
      <point x="132" y="309"/>
      <point x="136" y="252" type="curve" smooth="yes"/>
      <point x="144" y="65" type="line" smooth="yes"/>
      <point x="146" y="32"/>
      <point x="155" y="8"/>
      <point x="203" y="8" type="curve" smooth="yes"/>
      <point x="261" y="8" type="line"/>
      <point x="219" y="-166" type="line" smooth="yes"/>
      <point x="205" y="-221"/>
      <point x="196" y="-255"/>
    </contour>
  </outline>
</glyph>
<glyph name="period" format="1">
  <advance width="600"/>
  <unicode hex="002E"/>
  <outline>
    <contour>
      <point x="300" y="0" type="curve" smooth="yes"/>
      <point x="430" y="0"/>
      <point x="448" y="7"/>
      <point x="451" y="57" type="curve" smooth="yes"/>
      <point x="462" y="252" type="line" smooth="yes"/>
      <point x="465" y="309"/>
      <point x="445" y="325"/>
      <point x="300" y="325" type="curve" smooth="yes"/>
      <point x="155" y="325"/>
      <point x="134" y="309"/>
      <point x="138" y="252" type="curve" smooth="yes"/>
      <point x="150" y="57" type="line" smooth="yes"/>
      <point x="153" y="7"/>
      <point x="170" y="0"/>
    </contour>
  </outline>
</glyph>
<glyph name="one" format="1">
  <advance width="684"/>
  <unicode hex="0031"/>
  <outline>
    <contour>
      <point x="391" y="1690" type="curve" smooth="yes"/>
      <point x="304" y="1690"/>
      <point x="259" y="1685"/>
      <point x="238" y="1665" type="curve" smooth="yes"/>
      <point x="225" y="1652"/>
      <point x="221" y="1634"/>
      <point x="222" y="1607" type="curve" smooth="yes"/>
      <point x="224" y="1524" type="line"/>
      <point x="241" y="1480" type="line"/>
      <point x="266" y="68" type="line" smooth="yes"/>
      <point x="267" y="7"/>
      <point x="285" y="0"/>
      <point x="391" y="0" type="curve" smooth="yes"/>
      <point x="497" y="0"/>
      <point x="534" y="7"/>
      <point x="536" y="68" type="curve" smooth="yes"/>
      <point x="580" y="1607" type="line" smooth="yes"/>
      <point x="582" y="1676"/>
      <point x="533" y="1690"/>
    </contour>
    <contour>
      <point x="198" y="1278" type="line"/>
      <point x="303" y="1278" type="line"/>
      <point x="303" y="1344" type="line"/>
      <point x="198" y="1344" type="line"/>
    </contour>
    <contour>
      <point x="1" y="1172" type="line"/>
      <point x="1" y="1117"/>
      <point x="22" y="1110"/>
      <point x="39" y="1110" type="curve" smooth="yes"/>
      <point x="54" y="1110"/>
      <point x="77" y="1122"/>
      <point x="98" y="1143" type="curve" smooth="yes"/>
      <point x="370" y="1409" type="line"/>
      <point x="238" y="1665" type="line"/>
      <point x="46" y="1464" type="line" smooth="yes"/>
      <point x="12" y="1430"/>
      <point x="1" y="1405"/>
      <point x="1" y="1344" type="curve" smooth="yes"/>
    </contour>
  </outline>
</glyph>
<glyph name="three" format="1">
  <advance width="1176"/>
  <unicode hex="0033"/>
  <outline>
    <contour>
      <point x="587" y="661" type="line"/>
      <point x="695" y="661"/>
      <point x="745" y="640"/>
      <point x="747" y="536" type="curve" smooth="yes"/>
      <point x="753" y="307" type="line" smooth="yes"/>
      <point x="756" y="200"/>
      <point x="703" y="161"/>
      <point x="589" y="161" type="curve" smooth="yes"/>
      <point x="587" y="161" type="line" smooth="yes"/>
      <point x="473" y="161"/>
      <point x="420" y="200"/>
      <point x="423" y="307" type="curve" smooth="yes"/>
      <point x="426" y="415" type="line" smooth="yes"/>
      <point x="429" y="496"/>
      <point x="395" y="507"/>
      <point x="287" y="507" type="curve" smooth="yes"/>
      <point x="173" y="507"/>
      <point x="146" y="496"/>
      <point x="148" y="415" type="curve" smooth="yes"/>
      <point x="152" y="278" type="line" smooth="yes"/>
      <point x="157" y="122"/>
      <point x="260" y="-12"/>
      <point x="587" y="-12" type="curve" smooth="yes"/>
      <point x="918" y="-12"/>
      <point x="1020" y="122"/>
      <point x="1024" y="278" type="curve"/>
      <point x="1031" y="482" type="line"/>
      <point x="1035" y="624"/>
      <point x="965" y="673"/>
      <point x="832" y="749" type="curve"/>
      <point x="832" y="757" type="line"/>
      <point x="1007" y="831"/>
      <point x="1040" y="926"/>
      <point x="1044" y="1036" type="curve"/>
      <point x="1058" y="1407" type="line"/>
      <point x="1063" y="1628"/>
      <point x="796" y="1701"/>
      <point x="587" y="1701" type="curve" smooth="yes"/>
      <point x="380" y="1701"/>
      <point x="108" y="1628"/>
      <point x="113" y="1407" type="curve"/>
      <point x="135" y="1044" type="line"/>
      <point x="137" y="962"/>
      <point x="170" y="952"/>
      <point x="287" y="952" type="curve" smooth="yes"/>
      <point x="405" y="952"/>
      <point x="442" y="962"/>
      <point x="444" y="1044" type="curve"/>
      <point x="457" y="1389" type="line"/>
      <point x="460" y="1493"/>
      <point x="496" y="1522"/>
      <point x="587" y="1522" type="curve" smooth="yes"/>
      <point x="680" y="1522"/>
      <point x="715" y="1493"/>
      <point x="719" y="1389" type="curve" smooth="yes"/>
      <point x="733" y="984" type="line" smooth="yes"/>
      <point x="737" y="872"/>
      <point x="692" y="838"/>
      <point x="589" y="838" type="curve" smooth="yes"/>
      <point x="532" y="838" type="line" smooth="yes"/>
      <point x="461" y="838"/>
      <point x="459" y="815"/>
      <point x="459" y="750" type="curve" smooth="yes"/>
      <point x="459" y="685"/>
      <point x="461" y="661"/>
      <point x="531" y="661" type="curve" smooth="yes"/>
    </contour>
  </outline>
</glyph>
<glyph name="four" format="1">
  <advance width="1009"/>
  <unicode hex="0034"/>
  <outline>
    <contour>
      <point x="570" y="1690" type="curve" smooth="yes"/>
      <point x="438" y="1690"/>
      <point x="398" y="1678"/>
      <point x="371" y="1596" type="curve" smooth="yes"/>
      <point x="41" y="577" type="line" smooth="yes"/>
      <point x="27" y="536"/>
      <point x="11" y="500"/>
      <point x="11" y="460" type="curve" smooth="yes"/>
      <point x="11" y="427" type="line" smooth="yes"/>
      <point x="11" y="384"/>
      <point x="84" y="365"/>
      <point x="124" y="365" type="curve" smooth="yes"/>
      <point x="248" y="365"/>
      <point x="261" y="381"/>
      <point x="282" y="432" type="curve" smooth="yes"/>
      <point x="748" y="1589" type="line" smooth="yes"/>
      <point x="776" y="1657"/>
      <point x="728" y="1690"/>
    </contour>
    <contour>
      <point x="826" y="365" type="line"/>
      <point x="896" y="365"/>
      <point x="898" y="382"/>
      <point x="898" y="463" type="curve" smooth="yes"/>
      <point x="898" y="543"/>
      <point x="896" y="561"/>
      <point x="826" y="561" type="curve" smooth="yes"/>
      <point x="104" y="561" type="line"/>
      <point x="154" y="365" type="line"/>
    </contour>
    <contour>
      <point x="789" y="1000" type="curve" smooth="yes"/>
      <point x="663" y="1000"/>
      <point x="618" y="986"/>
      <point x="620" y="917" type="curve" smooth="yes"/>
      <point x="644" y="68" type="line" smooth="yes"/>
      <point x="645" y="7"/>
      <point x="663" y="0"/>
      <point x="769" y="0" type="curve" smooth="yes"/>
      <point x="875" y="0"/>
      <point x="912" y="7"/>
      <point x="914" y="68" type="curve" smooth="yes"/>
      <point x="938" y="917" type="line" smooth="yes"/>
      <point x="940" y="989"/>
      <point x="931" y="1000"/>
    </contour>
  </outline>
</glyph>
<glyph name="seven" format="1">
  <advance width="1029"/>
  <unicode hex="0037"/>
  <outline>
    <contour>
      <point x="182" y="1214" type="curve" smooth="yes"/>
      <point x="285" y="1214"/>
      <point x="302" y="1221"/>
      <point x="303" y="1271" type="curve"/>
      <point x="329" y="1484" type="line"/>
      <point x="637" y="1485" type="line"/>
      <point x="237" y="68" type="line"/>
      <point x="224" y="8"/>
      <point x="256" y="0"/>
      <point x="362" y="0" type="curve" smooth="yes"/>
      <point x="452" y="0"/>
      <point x="467" y="17"/>
      <point x="487" y="68" type="curve" smooth="yes"/>
      <point x="1003" y="1516" type="line"/>
      <point x="1005" y="1526"/>
      <point x="1009" y="1550"/>
      <point x="1008" y="1592" type="curve" smooth="yes"/>
      <point x="1006" y="1672"/>
      <point x="1006" y="1690"/>
      <point x="936" y="1690" type="curve" smooth="yes"/>
      <point x="182" y="1690" type="line" smooth="yes"/>
      <point x="46" y="1689"/>
      <point x="29" y="1672"/>
      <point x="30" y="1617" type="curve"/>
      <point x="42" y="1271" type="line"/>
      <point x="43" y="1221"/>
      <point x="61" y="1214"/>
    </contour>
  </outline>
</glyph>
<glyph name="eight" format="1">
  <advance width="1176"/>
  <unicode hex="0038"/>
  <outline>
    <contour>
      <point x="587" y="1701" type="curve" smooth="yes"/>
      <point x="376" y="1701"/>
      <point x="106" y="1628"/>
      <point x="111" y="1407" type="curve" smooth="yes"/>
      <point x="132" y="1036" type="line" smooth="yes"/>
      <point x="134" y="926"/>
      <point x="169" y="831"/>
      <point x="344" y="757" type="curve"/>
      <point x="344" y="749" type="line"/>
      <point x="211" y="673"/>
      <point x="141" y="624"/>
      <point x="145" y="482" type="curve" smooth="yes"/>
      <point x="152" y="278" type="line" smooth="yes"/>
      <point x="156" y="122"/>
      <point x="260" y="-12"/>
      <point x="587" y="-12" type="curve" smooth="yes"/>
      <point x="918" y="-12"/>
      <point x="1020" y="122"/>
      <point x="1024" y="278" type="curve" smooth="yes"/>
      <point x="1031" y="482" type="line" smooth="yes"/>
      <point x="1035" y="624"/>
      <point x="965" y="673"/>
      <point x="832" y="749" type="curve"/>
      <point x="832" y="757" type="line"/>
      <point x="1007" y="831"/>
      <point x="1042" y="926"/>
      <point x="1044" y="1036" type="curve" smooth="yes"/>
      <point x="1065" y="1407" type="line" smooth="yes"/>
      <point x="1070" y="1628"/>
      <point x="800" y="1701"/>
    </contour>
    <contour>
      <point x="589" y="837" type="curve" smooth="yes"/>
      <point x="484" y="837"/>
      <point x="439" y="872"/>
      <point x="443" y="984" type="curve" smooth="yes"/>
      <point x="457" y="1389" type="line" smooth="yes"/>
      <point x="461" y="1493"/>
      <point x="496" y="1522"/>
      <point x="587" y="1522" type="curve" smooth="yes"/>
      <point x="680" y="1522"/>
      <point x="715" y="1493"/>
      <point x="719" y="1389" type="curve" smooth="yes"/>
      <point x="733" y="984" type="line" smooth="yes"/>
      <point x="737" y="872"/>
      <point x="692" y="837"/>
    </contour>
    <contour>
      <point x="587" y="161" type="line"/>
      <point x="473" y="161"/>
      <point x="420" y="200"/>
      <point x="423" y="307" type="curve" smooth="yes"/>
      <point x="429" y="536" type="line" smooth="yes"/>
      <point x="431" y="640"/>
      <point x="481" y="661"/>
      <point x="587" y="661" type="curve" smooth="yes"/>
      <point x="695" y="661"/>
      <point x="745" y="640"/>
      <point x="747" y="536" type="curve" smooth="yes"/>
      <point x="753" y="307" type="line" smooth="yes"/>
      <point x="756" y="200"/>
      <point x="703" y="161"/>
      <point x="589" y="161" type="curve" smooth="yes"/>
    </contour>
  </outline>
</glyph>
<glyph name="nine" format="1">
  <advance width="1166"/>
  <unicode hex="0039"/>
  <outline>
    <contour>
      <point x="579" y="727" type="curve" smooth="yes"/>
      <point x="474" y="727"/>
      <point x="429" y="762"/>
      <point x="433" y="874" type="curve" smooth="yes"/>
      <point x="447" y="1389" type="line" smooth="yes"/>
      <point x="451" y="1493"/>
      <point x="486" y="1522"/>
      <point x="577" y="1522" type="curve" smooth="yes"/>
      <point x="670" y="1522"/>
      <point x="706" y="1493"/>
      <point x="709" y="1389" type="curve" smooth="yes"/>
      <point x="726" y="751" type="line"/>
      <point x="679" y="733"/>
      <point x="628" y="727"/>
    </contour>
    <contour>
      <point x="271" y="186" type="line"/>
      <point x="224" y="186"/>
      <point x="211" y="174"/>
      <point x="211" y="94" type="curve" smooth="yes"/>
      <point x="211" y="-4"/>
      <point x="217" y="0"/>
      <point x="300" y="0" type="curve" smooth="yes"/>
      <point x="559" y="0" type="line" smooth="yes"/>
      <point x="900" y="0"/>
      <point x="1000" y="134"/>
      <point x="1004" y="290" type="curve" smooth="yes"/>
      <point x="1055" y="1407" type="line" smooth="yes"/>
      <point x="1062" y="1628"/>
      <point x="790" y="1701"/>
      <point x="577" y="1701" type="curve" smooth="yes"/>
      <point x="366" y="1701"/>
      <point x="96" y="1628"/>
      <point x="101" y="1407" type="curve" smooth="yes"/>
      <point x="126" y="803" type="line" smooth="yes"/>
      <point x="132" y="603"/>
      <point x="378" y="551"/>
      <point x="525" y="551" type="curve" smooth="yes"/>
      <point x="630" y="551"/>
      <point x="681" y="566"/>
      <point x="732" y="582" type="curve"/>
      <point x="732" y="353" type="line" smooth="yes"/>
      <point x="732" y="232"/>
      <point x="688" y="186"/>
      <point x="560" y="186" type="curve" smooth="yes"/>
    </contour>
  </outline>
</glyph>
<glyph name="less" format="1">
  <advance width="802"/>
  <unicode hex="003C"/>
  <outline>
    <contour>
      <point x="323" y="665" type="line"/>
      <point x="648" y="363" type="line" smooth="yes"/>
      <point x="685" y="328"/>
      <point x="715" y="303"/>
      <point x="715" y="282" type="curve" smooth="yes"/>
      <point x="715" y="249"/>
      <point x="699" y="242"/>
      <point x="604" y="242" type="curve" smooth="yes"/>
      <point x="543" y="242"/>
      <point x="509" y="244"/>
      <point x="458" y="288" type="curve" smooth="yes"/>
      <point x="100" y="597" type="line" smooth="yes"/>
      <point x="69" y="623"/>
      <point x="60" y="644"/>
      <point x="60" y="665" type="curve" smooth="yes"/>
      <point x="60" y="686"/>
      <point x="68" y="701"/>
      <point x="94" y="733" type="curve" smooth="yes"/>
      <point x="401" y="1099" type="line" smooth="yes"/>
      <point x="447" y="1154"/>
      <point x="477" y="1161"/>
      <point x="579" y="1161" type="curve" smooth="yes"/>
      <point x="690" y="1161"/>
      <point x="722" y="1151"/>
      <point x="722" y="1118" type="curve" smooth="yes"/>
      <point x="722" y="1097"/>
      <point x="709" y="1079"/>
      <point x="676" y="1040" type="curve" smooth="yes"/>
    </contour>
  </outline>
</glyph>
<glyph name="at" format="1">
  <advance width="2089"/>
  <unicode hex="0040"/>
  <outline>
    <contour>
      <point x="1168" y="1056" type="line"/>
      <point x="1130" y="1104"/>
      <point x="1059" y="1164"/>
      <point x="931" y="1164" type="curve" smooth="yes"/>
      <point x="746" y="1164"/>
      <point x="632" y="1050"/>
      <point x="637" y="857" type="curve" smooth="yes"/>
      <point x="650" y="288" type="line" smooth="yes"/>
      <point x="656" y="47"/>
      <point x="795" y="-15"/>
      <point x="944" y="-15" type="curve" smooth="yes"/>
      <point x="1058" y="-15"/>
      <point x="1151" y="43"/>
      <point x="1222" y="124" type="curve"/>
      <point x="1189" y="227" type="line"/>
      <point x="1164" y="193"/>
      <point x="1115" y="151"/>
      <point x="1042" y="151" type="curve" smooth="yes"/>
      <point x="965" y="151"/>
      <point x="907" y="182"/>
      <point x="910" y="288" type="curve" smooth="yes"/>
      <point x="926" y="857" type="line" smooth="yes"/>
      <point x="928" y="949"/>
      <point x="965" y="997"/>
      <point x="1047" y="997" type="curve" smooth="yes"/>
      <point x="1094" y="997"/>
      <point x="1144" y="961"/>
      <point x="1169" y="929" type="curve"/>
    </contour>
    <contour>
      <point x="1242" y="-442" type="line"/>
      <point x="1302" y="-442"/>
      <point x="1304" y="-421"/>
      <point x="1304" y="-361" type="curve" smooth="yes"/>
      <point x="1304" y="-311"/>
      <point x="1302" y="-292"/>
      <point x="1242" y="-292" type="curve" smooth="yes"/>
      <point x="972" y="-292" type="line" smooth="yes"/>
      <point x="680" y="-292"/>
      <point x="402" y="-187"/>
      <point x="406" y="132" type="curve" smooth="yes"/>
      <point x="414" y="1054" type="line" smooth="yes"/>
      <point x="418" y="1373"/>
      <point x="696" y="1476"/>
      <point x="1051" y="1476" type="curve" smooth="yes"/>
      <point x="1407" y="1476"/>
      <point x="1685" y="1373"/>
      <point x="1689" y="1054" type="curve" smooth="yes"/>
      <point x="1697" y="282" type="line" smooth="yes"/>
      <point x="1699" y="181"/>
      <point x="1660" y="144"/>
      <point x="1595" y="144" type="curve" smooth="yes"/>
      <point x="1430" y="144" type="line"/>
      <point x="1456" y="1080" type="line" smooth="yes"/>
      <point x="1458" y="1137"/>
      <point x="1430" y="1153"/>
      <point x="1302" y="1153" type="curve" smooth="yes"/>
      <point x="1174" y="1153"/>
      <point x="1147" y="1137"/>
      <point x="1149" y="1080" type="curve" smooth="yes"/>
      <point x="1176" y="168" type="line"/>
      <point x="1191" y="141" type="line"/>
      <point x="1193" y="115" type="line" smooth="yes"/>
      <point x="1202" y="19"/>
      <point x="1267" y="0"/>
      <point x="1348" y="0" type="curve" smooth="yes"/>
      <point x="1606" y="0" type="line" smooth="yes"/>
      <point x="1791" y="0"/>
      <point x="1900" y="64"/>
      <point x="1905" y="282" type="curve" smooth="yes"/>
      <point x="1913" y="1078" type="line" smooth="yes"/>
      <point x="1918" y="1488"/>
      <point x="1507" y="1676"/>
      <point x="1051" y="1676" type="curve" smooth="yes"/>
      <point x="596" y="1676"/>
      <point x="185" y="1488"/>
      <point x="190" y="1078" type="curve" smooth="yes"/>
      <point x="198" y="132" type="line" smooth="yes"/>
      <point x="203" y="-287"/>
      <point x="541" y="-442"/>
      <point x="972" y="-442" type="curve" smooth="yes"/>
    </contour>
  </outline>
</glyph>
<glyph name="B" format="1">
  <advance width="1140"/>
  <unicode hex="0042"/>
  <outline>
    <contour>
      <point x="238" y="750" type="line"/>
      <point x="591" y="750" type="line" smooth="yes"/>
      <point x="925" y="750"/>
      <point x="1030" y="934"/>
      <point x="1034" y="1087" type="curve" smooth="yes"/>
      <point x="1040" y="1364" type="line" smooth="yes"/>
      <point x="1046" y="1595"/>
      <point x="834" y="1690"/>
      <point x="560" y="1690" type="curve" smooth="yes"/>
      <point x="332" y="1690" type="line"/>
      <point x="332" y="1517" type="line"/>
      <point x="528" y="1517" type="line" smooth="yes"/>
      <point x="656" y="1517"/>
      <point x="685" y="1499"/>
      <point x="688" y="1396" type="curve" smooth="yes"/>
      <point x="702" y="1019" type="line" smooth="yes"/>
      <point x="705" y="907"/>
      <point x="667" y="872"/>
      <point x="539" y="872" type="curve" smooth="yes"/>
      <point x="238" y="872" type="line"/>
    </contour>
    <contour>
      <point x="307" y="0" type="curve" smooth="yes"/>
      <point x="430" y="0"/>
      <point x="444" y="7"/>
      <point x="445" y="68" type="curve" smooth="yes"/>
      <point x="489" y="1607" type="line" smooth="yes"/>
      <point x="491" y="1676"/>
      <point x="465" y="1690"/>
      <point x="307" y="1690" type="curve" smooth="yes"/>
      <point x="148" y="1690"/>
      <point x="123" y="1676"/>
      <point x="125" y="1607" type="curve" smooth="yes"/>
      <point x="168" y="68" type="line" smooth="yes"/>
      <point x="170" y="7"/>
      <point x="184" y="0"/>
    </contour>
    <contour>
      <point x="325" y="0" type="line"/>
      <point x="568" y="0" type="line" smooth="yes"/>
      <point x="902" y="0"/>
      <point x="1007" y="165"/>
      <point x="1012" y="317" type="curve" smooth="yes"/>
      <point x="1018" y="494" type="line" smooth="yes"/>
      <point x="1026" y="725"/>
      <point x="803" y="833"/>
      <point x="522" y="833" type="curve" smooth="yes"/>
      <point x="347" y="833" type="line"/>
      <point x="347" y="697" type="line"/>
      <point x="544" y="697" type="line" smooth="yes"/>
      <point x="672" y="697"/>
      <point x="707" y="675"/>
      <point x="712" y="571" type="curve" smooth="yes"/>
      <point x="718" y="311" type="line" smooth="yes"/>
      <point x="723" y="199"/>
      <point x="683" y="163"/>
      <point x="554" y="163" type="curve" smooth="yes"/>
      <point x="325" y="163" type="line"/>
    </contour>
    <contour>
      <point x="582" y="-170" type="move" name="btm"/>
    </contour>
    <contour>
      <point x="582" y="1700" type="move" name="top"/>
    </contour>
  </outline>
</glyph>
<glyph name="D" format="1">
  <advance width="1222"/>
  <unicode hex="0044"/>
  <outline>
    <contour>
      <point x="280" y="0" type="line"/>
      <point x="602" y="0" type="line" smooth="yes"/>
      <point x="922" y="0"/>
      <point x="1063" y="124"/>
      <point x="1069" y="324" type="curve" smooth="yes"/>
      <point x="1098" y="1334" type="line" smooth="yes"/>
      <point x="1105" y="1566"/>
      <point x="957" y="1690"/>
      <point x="599" y="1690" type="curve" smooth="yes"/>
      <point x="304" y="1690" type="line"/>
      <point x="304" y="1517" type="line"/>
      <point x="617" y="1517" type="line" smooth="yes"/>
      <point x="702" y="1517"/>
      <point x="744" y="1498"/>
      <point x="747" y="1382" type="curve" smooth="yes"/>
      <point x="776" y="311" type="line" smooth="yes"/>
      <point x="779" y="199"/>
      <point x="738" y="163"/>
      <point x="612" y="163" type="curve" smooth="yes"/>
      <point x="297" y="163" type="line"/>
    </contour>
    <contour>
      <point x="307" y="0" type="curve" smooth="yes"/>
      <point x="430" y="0"/>
      <point x="444" y="7"/>
      <point x="445" y="68" type="curve" smooth="yes"/>
      <point x="489" y="1607" type="line" smooth="yes"/>
      <point x="491" y="1676"/>
      <point x="465" y="1690"/>
      <point x="307" y="1690" type="curve" smooth="yes"/>
      <point x="148" y="1690"/>
      <point x="123" y="1676"/>
      <point x="125" y="1607" type="curve" smooth="yes"/>
      <point x="168" y="68" type="line" smooth="yes"/>
      <point x="170" y="7"/>
      <point x="184" y="0"/>
    </contour>
    <contour>
      <point x="611" y="-170" type="move" name="btm"/>
    </contour>
    <contour>
      <point x="611" y="1700" type="move" name="top"/>
    </contour>
  </outline>
</glyph>
<glyph name="K" format="1">
  <advance width="1100"/>
  <unicode hex="004B"/>
  <outline>
    <contour>
      <point x="934" y="0" type="curve" smooth="yes"/>
      <point x="1044" y="0"/>
      <point x="1060" y="13"/>
      <point x="1060" y="45" type="curve" smooth="yes"/>
      <point x="1060" y="66"/>
      <point x="1049" y="94"/>
      <point x="1031" y="142" type="curve" smooth="yes"/>
      <point x="804" y="719" type="line"/>
      <point x="1049" y="1545" type="line" smooth="yes"/>
      <point x="1060" y="1581"/>
      <point x="1066" y="1598"/>
      <point x="1066" y="1632" type="curve" smooth="yes"/>
      <point x="1066" y="1682"/>
      <point x="1010" y="1690"/>
      <point x="894" y="1690" type="curve" smooth="yes"/>
      <point x="754" y="1690"/>
      <point x="729" y="1677"/>
      <point x="711" y="1600" type="curve" smooth="yes"/>
      <point x="528" y="719" type="line"/>
      <point x="800" y="80" type="line" smooth="yes"/>
      <point x="828" y="15"/>
      <point x="841" y="0"/>
    </contour>
    <contour>
      <point x="307" y="0" type="curve" smooth="yes"/>
      <point x="430" y="0"/>
      <point x="444" y="7"/>
      <point x="445" y="68" type="curve" smooth="yes"/>
      <point x="489" y="1607" type="line" smooth="yes"/>
      <point x="491" y="1676"/>
      <point x="465" y="1690"/>
      <point x="307" y="1690" type="curve" smooth="yes"/>
      <point x="148" y="1690"/>
      <point x="123" y="1676"/>
      <point x="125" y="1607" type="curve" smooth="yes"/>
      <point x="168" y="68" type="line" smooth="yes"/>
      <point x="170" y="7"/>
      <point x="184" y="0"/>
    </contour>
    <contour>
      <point x="595" y="-170" type="move" name="btm"/>
    </contour>
    <contour>
      <point x="595" y="1700" type="move" name="top"/>
    </contour>
  </outline>
</glyph>
<glyph name="M" format="1">
  <advance width="1545"/>
  <unicode hex="004D"/>
  <outline>
    <contour>
      <point x="774" y="785" type="line"/>
      <point x="496" y="1635" type="line" smooth="yes"/>
      <point x="483" y="1679"/>
      <point x="440" y="1690"/>
      <point x="307" y="1690" type="curve" smooth="yes"/>
      <point x="160" y="1690"/>
      <point x="123" y="1676"/>
      <point x="125" y="1607" type="curve" smooth="yes"/>
      <point x="168" y="68" type="line" smooth="yes"/>
      <point x="170" y="7"/>
      <point x="183" y="0"/>
      <point x="297" y="0" type="curve" smooth="yes"/>
      <point x="411" y="0"/>
      <point x="425" y="7"/>
      <point x="426" y="68" type="curve" smooth="yes"/>
      <point x="421" y="1145" type="line"/>
      <point x="434" y="1145" type="line"/>
      <point x="661" y="346" type="line" smooth="yes"/>
      <point x="677" y="296"/>
      <point x="686" y="286"/>
      <point x="766" y="286" type="curve" smooth="yes"/>
      <point x="857" y="286"/>
      <point x="868" y="295"/>
      <point x="884" y="346" type="curve" smooth="yes"/>
      <point x="1114" y="1145" type="line"/>
      <point x="1127" y="1145" type="line"/>
      <point x="1120" y="68" type="line" smooth="yes"/>
      <point x="1121" y="7"/>
      <point x="1135" y="0"/>
      <point x="1248" y="0" type="curve" smooth="yes"/>
      <point x="1362" y="0"/>
      <point x="1375" y="7"/>
      <point x="1377" y="68" type="curve" smooth="yes"/>
      <point x="1421" y="1607" type="line" smooth="yes"/>
      <point x="1423" y="1676"/>
      <point x="1395" y="1690"/>
      <point x="1238" y="1690" type="curve" smooth="yes"/>
      <point x="1113" y="1690"/>
      <point x="1071" y="1679"/>
      <point x="1059" y="1635" type="curve" smooth="yes"/>
      <point x="785" y="785" type="line"/>
    </contour>
    <contour>
      <point x="772" y="-170" type="move" name="btm"/>
    </contour>
    <contour>
      <point x="772" y="1700" type="move" name="top"/>
    </contour>
  </outline>
</glyph>
<glyph name="N" format="1">
  <advance width="1234"/>
  <unicode hex="004E"/>
  <outline>
    <contour>
      <point x="432" y="1646" type="line"/>
      <point x="264" y="1518" type="line"/>
      <point x="847" y="28" type="line"/>
      <point x="983" y="146" type="line"/>
    </contour>
    <contour>
      <point x="304" y="0" type="curve" smooth="yes"/>
      <point x="409" y="0"/>
      <point x="421" y="7"/>
      <point x="423" y="68" type="curve" smooth="yes"/>
      <point x="436" y="1607" type="line" smooth="yes"/>
      <point x="438" y="1676"/>
      <point x="414" y="1690"/>
      <point x="283" y="1690" type="curve" smooth="yes"/>
      <point x="143" y="1690"/>
      <point x="123" y="1676"/>
      <point x="125" y="1607" type="curve" smooth="yes"/>
      <point x="168" y="68" type="line" smooth="yes"/>
      <point x="170" y="7"/>
      <point x="185" y="0"/>
    </contour>
    <contour>
      <point x="946" y="0" type="curve" smooth="yes"/>
      <point x="1051" y="0"/>
      <point x="1063" y="37"/>
      <point x="1065" y="98" type="curve" smooth="yes"/>
      <point x="1109" y="1607" type="line" smooth="yes"/>
      <point x="1111" y="1676"/>
      <point x="1088" y="1690"/>
      <point x="930" y="1690" type="curve" smooth="yes"/>
      <point x="789" y="1690"/>
      <point x="765" y="1676"/>
      <point x="767" y="1607" type="curve" smooth="yes"/>
      <point x="841" y="68" type="line" smooth="yes"/>
      <point x="843" y="7"/>
      <point x="877" y="0"/>
    </contour>
    <contour>
      <point x="414" y="1063" type="line"/>
      <point x="499" y="1063" type="line"/>
      <point x="499" y="1120" type="line"/>
      <point x="414" y="1120" type="line"/>
    </contour>
    <contour>
      <point x="768" y="569" type="line"/>
      <point x="853" y="569" type="line"/>
      <point x="853" y="627" type="line"/>
      <point x="768" y="627" type="line"/>
    </contour>
    <contour>
      <point x="617" y="-170" type="move" name="btm"/>
    </contour>
    <contour>
      <point x="617" y="1700" type="move" name="top"/>
    </contour>
  </outline>
</glyph>
<glyph name="O" format="1">
  <advance width="1208"/>
  <unicode hex="004F"/>
  <outline>
    <contour>
      <point x="604" y="151" type="curve" smooth="yes"/>
      <point x="486" y="151"/>
      <point x="440" y="184"/>
      <point x="443" y="296" type="curve" smooth="yes"/>
      <point x="472" y="1396" type="line" smooth="yes"/>
      <point x="475" y="1513"/>
      <point x="519" y="1529"/>
      <point x="604" y="1529" type="curve" smooth="yes"/>
      <point x="689" y="1529"/>
      <point x="733" y="1513"/>
      <point x="736" y="1396" type="curve" smooth="yes"/>
      <point x="765" y="296" type="line" smooth="yes"/>
      <point x="768" y="184"/>
      <point x="722" y="151"/>
    </contour>
    <contour>
      <point x="604" y="-12" type="curve" smooth="yes"/>
      <point x="927" y="-12"/>
      <point x="1054" y="131"/>
      <point x="1059" y="305" type="curve" smooth="yes"/>
      <point x="1088" y="1365" type="line" smooth="yes"/>
      <point x="1093" y="1565"/>
      <point x="949" y="1701"/>
      <point x="604" y="1701" type="curve" smooth="yes"/>
      <point x="258" y="1701"/>
      <point x="115" y="1565"/>
      <point x="120" y="1365" type="curve" smooth="yes"/>
      <point x="148" y="305" type="line" smooth="yes"/>
      <point x="153" y="131"/>
      <point x="281" y="-12"/>
    </contour>
    <contour>
      <point x="604" y="-170" type="move" name="btm"/>
    </contour>
    <contour>
      <point x="604" y="1700" type="move" name="top"/>
    </contour>
  </outline>
</glyph>
<glyph name="R" format="1">
  <advance width="1140"/>
  <unicode hex="0052"/>
  <outline>
    <contour>
      <point x="238" y="570" type="line"/>
      <point x="583" y="570" type="line" smooth="yes"/>
      <point x="917" y="570"/>
      <point x="1023" y="737"/>
      <point x="1027" y="889" type="curve" smooth="yes"/>
      <point x="1040" y="1364" type="line" smooth="yes"/>
      <point x="1047" y="1595"/>
      <point x="834" y="1690"/>
      <point x="560" y="1690" type="curve" smooth="yes"/>
      <point x="332" y="1690" type="line"/>
      <point x="332" y="1517" type="line"/>
      <point x="528" y="1517" type="line" smooth="yes"/>
      <point x="656" y="1517"/>
      <point x="685" y="1499"/>
      <point x="688" y="1396" type="curve" smooth="yes"/>
      <point x="702" y="881" type="line" smooth="yes"/>
      <point x="705" y="769"/>
      <point x="667" y="733"/>
      <point x="539" y="733" type="curve" smooth="yes"/>
      <point x="238" y="733" type="line"/>
    </contour>
    <contour>
      <point x="814" y="689" type="line"/>
      <point x="518" y="689" type="line"/>
      <point x="778" y="80" type="line" smooth="yes"/>
      <point x="810" y="15"/>
      <point x="825" y="0"/>
      <point x="932" y="0" type="curve" smooth="yes"/>
      <point x="1042" y="0"/>
      <point x="1058" y="13"/>
      <point x="1058" y="45" type="curve" smooth="yes"/>
      <point x="1058" y="66"/>
      <point x="1047" y="94"/>
      <point x="1029" y="142" type="curve" smooth="yes"/>
    </contour>
    <contour>
      <point x="307" y="0" type="curve" smooth="yes"/>
      <point x="430" y="0"/>
      <point x="444" y="7"/>
      <point x="445" y="68" type="curve" smooth="yes"/>
      <point x="489" y="1607" type="line" smooth="yes"/>
      <point x="491" y="1676"/>
      <point x="465" y="1690"/>
      <point x="307" y="1690" type="curve" smooth="yes"/>
      <point x="148" y="1690"/>
      <point x="123" y="1676"/>
      <point x="125" y="1607" type="curve" smooth="yes"/>
      <point x="168" y="68" type="line" smooth="yes"/>
      <point x="170" y="7"/>
      <point x="184" y="0"/>
    </contour>
    <contour>
      <point x="591" y="-170" type="move" name="btm"/>
    </contour>
    <contour>
      <point x="591" y="1700" type="move" name="top"/>
    </contour>
  </outline>
</glyph>
<glyph name="S" format="1">
  <advance width="1158"/>
  <unicode hex="0053"/>
  <outline>
    <contour>
      <point x="1059" y="357" type="line"/>
      <point x="1069" y="549"/>
      <point x="1023" y="615"/>
      <point x="882" y="674" type="curve" smooth="yes"/>
      <point x="558" y="810" type="line" smooth="yes"/>
      <point x="471" y="847"/>
      <point x="448" y="897"/>
      <point x="450" y="997" type="curve" smooth="yes"/>
      <point x="461" y="1396" type="line" smooth="yes"/>
      <point x="464" y="1513"/>
      <point x="509" y="1529"/>
      <point x="594" y="1529" type="curve" smooth="yes"/>
      <point x="679" y="1529"/>
      <point x="724" y="1513"/>
      <point x="727" y="1396" type="curve" smooth="yes"/>
      <point x="739" y="965" type="line" smooth="yes"/>
      <point x="741" y="884"/>
      <point x="779" y="873"/>
      <point x="904" y="873" type="curve" smooth="yes"/>
      <point x="1028" y="873"/>
      <point x="1066" y="884"/>
      <point x="1068" y="965" type="curve" smooth="yes"/>
      <point x="1078" y="1365" type="line" smooth="yes"/>
      <point x="1083" y="1565"/>
      <point x="940" y="1701"/>
      <point x="594" y="1701" type="curve" smooth="yes"/>
      <point x="248" y="1701"/>
      <point x="104" y="1565"/>
      <point x="110" y="1365" type="curve" smooth="yes"/>
      <point x="120" y="1026" type="line" smooth="yes"/>
      <point x="125" y="860"/>
      <point x="167" y="763"/>
      <point x="320" y="697" type="curve" smooth="yes"/>
      <point x="667" y="549" type="line" smooth="yes"/>
      <point x="754" y="511"/>
      <point x="761" y="454"/>
      <point x="762" y="361" type="curve" smooth="yes"/>
      <point x="763" y="296" type="line" smooth="yes"/>
      <point x="764" y="184"/>
      <point x="722" y="151"/>
      <point x="601" y="151" type="curve" smooth="yes"/>
      <point x="483" y="151"/>
      <point x="437" y="184"/>
      <point x="441" y="296" type="curve" smooth="yes"/>
      <point x="445" y="415" type="line" smooth="yes"/>
      <point x="447" y="496"/>
      <point x="409" y="507"/>
      <point x="286" y="507" type="curve" smooth="yes"/>
      <point x="164" y="507"/>
      <point x="142" y="496"/>
      <point x="144" y="415" type="curve" smooth="yes"/>
      <point x="147" y="305" type="line" smooth="yes"/>
      <point x="151" y="131"/>
      <point x="278" y="-12"/>
      <point x="601" y="-12" type="curve" smooth="yes"/>
      <point x="924" y="-12"/>
      <point x="1051" y="127"/>
      <point x="1057" y="301" type="curve" smooth="yes"/>
    </contour>
    <contour>
      <point x="594" y="-170" type="move" name="btm"/>
    </contour>
    <contour>
      <point x="594" y="1700" type="move" name="top"/>
    </contour>
  </outline>
</glyph>
<glyph name="V" format="1">
  <advance width="1121"/>
  <unicode hex="0056"/>
  <outline>
    <contour>
      <point x="570" y="0" type="curve" smooth="yes"/>
      <point x="712" y="0"/>
      <point x="740" y="9"/>
      <point x="755" y="68" type="curve" smooth="yes"/>
      <point x="1088" y="1607" type="line" smooth="yes"/>
      <point x="1102" y="1674"/>
      <point x="1065" y="1690"/>
      <point x="916" y="1690" type="curve" smooth="yes"/>
      <point x="757" y="1690"/>
      <point x="742" y="1675"/>
      <point x="734" y="1607" type="curve" smooth="yes"/>
      <point x="584" y="399" type="line"/>
      <point x="552" y="399" type="line"/>
      <point x="398" y="1607" type="line" smooth="yes"/>
      <point x="389" y="1675"/>
      <point x="373" y="1690"/>
      <point x="206" y="1690" type="curve" smooth="yes"/>
      <point x="56" y="1690"/>
      <point x="19" y="1674"/>
      <point x="34" y="1607" type="curve" smooth="yes"/>
      <point x="375" y="68" type="line" smooth="yes"/>
      <point x="392" y="9"/>
      <point x="421" y="0"/>
    </contour>
    <contour>
      <point x="560" y="-170" type="move" name="btm"/>
    </contour>
    <contour>
      <point x="560" y="1700" type="move" name="top"/>
    </contour>
  </outline>
</glyph>
<glyph name="X" format="1">
  <advance width="1124"/>
  <unicode hex="0058"/>
  <outline>
    <contour>
      <point x="539" y="732" type="line"/>
      <point x="764" y="80" type="line" smooth="yes"/>
      <point x="788" y="13"/>
      <point x="811" y="0"/>
      <point x="918" y="0" type="curve" smooth="yes"/>
      <point x="1020" y="0"/>
      <point x="1035" y="21"/>
      <point x="1035" y="53" type="curve" smooth="yes"/>
      <point x="1035" y="73"/>
      <point x="1028" y="93"/>
      <point x="1013" y="142" type="curve" smooth="yes"/>
      <point x="806" y="790" type="line"/>
      <point x="1071" y="1545" type="line" smooth="yes"/>
      <point x="1084" y="1583"/>
      <point x="1094" y="1606"/>
      <point x="1094" y="1632" type="curve" smooth="yes"/>
      <point x="1094" y="1682"/>
      <point x="1054" y="1690"/>
      <point x="908" y="1690" type="curve" smooth="yes"/>
      <point x="760" y="1690"/>
      <point x="742" y="1687"/>
      <point x="723" y="1602" type="curve" smooth="yes"/>
      <point x="550" y="814" type="line"/>
      <point x="575" y="814" type="line"/>
      <point x="400" y="1602" type="line" smooth="yes"/>
      <point x="381" y="1687"/>
      <point x="362" y="1690"/>
      <point x="215" y="1690" type="curve" smooth="yes"/>
      <point x="68" y="1690"/>
      <point x="30" y="1682"/>
      <point x="30" y="1632" type="curve" smooth="yes"/>
      <point x="30" y="1606"/>
      <point x="39" y="1582"/>
      <point x="51" y="1545" type="curve" smooth="yes"/>
      <point x="321" y="790" type="line"/>
      <point x="114" y="142" type="line" smooth="yes"/>
      <point x="99" y="94"/>
      <point x="92" y="73"/>
      <point x="92" y="53" type="curve" smooth="yes"/>
      <point x="92" y="21"/>
      <point x="107" y="0"/>
      <point x="209" y="0" type="curve" smooth="yes"/>
      <point x="316" y="0"/>
      <point x="339" y="13"/>
      <point x="362" y="80" type="curve" smooth="yes"/>
      <point x="588" y="732" type="line"/>
    </contour>
    <contour>
      <point x="514" y="850" type="line"/>
      <point x="618" y="850" type="line"/>
      <point x="618" y="916" type="line"/>
      <point x="514" y="916" type="line"/>
    </contour>
    <contour>
      <point x="511" y="632" type="line"/>
      <point x="615" y="632" type="line"/>
      <point x="615" y="690" type="line"/>
      <point x="511" y="690" type="line"/>
    </contour>
    <contour>
      <point x="561" y="-170" type="move" name="btm"/>
    </contour>
    <contour>
      <point x="561" y="1700" type="move" name="top"/>
    </contour>
  </outline>
</glyph>
<glyph name="Y" format="1">
  <advance width="1124"/>
  <unicode hex="0059"/>
  <outline>
    <contour>
      <point x="714" y="520" type="line"/>
      <point x="1071" y="1541" type="line" smooth="yes"/>
      <point x="1083" y="1578"/>
      <point x="1094" y="1606"/>
      <point x="1094" y="1632" type="curve" smooth="yes"/>
      <point x="1094" y="1682"/>
      <point x="1054" y="1690"/>
      <point x="908" y="1690" type="curve" smooth="yes"/>
      <point x="760" y="1690"/>
      <point x="739" y="1688"/>
      <point x="723" y="1602" type="curve" smooth="yes"/>
      <point x="541" y="648" type="line"/>
      <point x="585" y="648" type="line"/>
      <point x="400" y="1602" type="line" smooth="yes"/>
      <point x="383" y="1687"/>
      <point x="362" y="1690"/>
      <point x="215" y="1690" type="curve" smooth="yes"/>
      <point x="68" y="1690"/>
      <point x="30" y="1682"/>
      <point x="30" y="1632" type="curve" smooth="yes"/>
      <point x="30" y="1606"/>
      <point x="39" y="1577"/>
      <point x="51" y="1541" type="curve" smooth="yes"/>
      <point x="411" y="527" type="line"/>
      <point x="424" y="68" type="line" smooth="yes"/>
      <point x="426" y="7"/>
      <point x="440" y="0"/>
      <point x="562" y="0" type="curve" smooth="yes"/>
      <point x="685" y="0"/>
      <point x="699" y="7"/>
      <point x="701" y="68" type="curve" smooth="yes"/>
    </contour>
    <contour>
      <point x="514" y="746" type="line"/>
      <point x="618" y="746" type="line"/>
      <point x="618" y="820" type="line"/>
      <point x="514" y="820" type="line"/>
    </contour>
    <contour>
      <point x="561" y="-170" type="move" name="btm"/>
    </contour>
    <contour>
      <point x="561" y="1700" type="move" name="top"/>
    </contour>
  </outline>
</glyph>
<glyph name="Z" format="1">
  <advance width="994"/>
  <unicode hex="005A"/>
  <outline>
    <contour>
      <point x="247" y="0" type="line"/>
      <point x="360" y="0"/>
      <point x="349" y="15"/>
      <point x="367" y="63" type="curve" smooth="yes"/>
      <point x="930" y="1523" type="line"/>
      <point x="750" y="1690" type="line"/>
      <point x="610" y="1690"/>
      <point x="609" y="1673"/>
      <point x="588" y="1607" type="curve" smooth="yes"/>
      <point x="107" y="166" type="line"/>
    </contour>
    <contour>
      <point x="863" y="1494" type="line"/>
      <point x="933" y="1494"/>
      <point x="935" y="1511"/>
      <point x="935" y="1592" type="curve" smooth="yes"/>
      <point x="935" y="1672"/>
      <point x="933" y="1690"/>
      <point x="863" y="1690" type="curve" smooth="yes"/>
      <point x="131" y="1690" type="line" smooth="yes"/>
      <point x="61" y="1690"/>
      <point x="59" y="1672"/>
      <point x="59" y="1592" type="curve" smooth="yes"/>
      <point x="59" y="1511"/>
      <point x="61" y="1494"/>
      <point x="131" y="1494" type="curve" smooth="yes"/>
    </contour>
    <contour>
      <point x="820" y="0" type="line"/>
      <point x="889" y="0"/>
      <point x="891" y="18"/>
      <point x="891" y="98" type="curve" smooth="yes"/>
      <point x="891" y="178"/>
      <point x="889" y="196"/>
      <point x="820" y="196" type="curve" smooth="yes"/>
      <point x="173" y="196" type="line" smooth="yes"/>
      <point x="104" y="196"/>
      <point x="102" y="178"/>
      <point x="102" y="98" type="curve" smooth="yes"/>
      <point x="102" y="18"/>
      <point x="104" y="0"/>
      <point x="173" y="0" type="curve" smooth="yes"/>
    </contour>
    <contour>
      <point x="497" y="-170" type="move" name="btm"/>
    </contour>
    <contour>
      <point x="497" y="1700" type="move" name="top"/>
    </contour>
  </outline>
</glyph>
<glyph name="asciicircum" format="1">
  <advance width="1086"/>
  <unicode hex="005E"/>
  <outline>
    <contour>
      <point x="538" y="1684" type="curve" smooth="yes"/>
      <point x="410" y="1684"/>
      <point x="382" y="1658"/>
      <point x="365" y="1595" type="curve" smooth="yes"/>
      <point x="64" y="396" type="line" smooth="yes"/>
      <point x="49" y="341"/>
      <point x="79" y="323"/>
      <point x="156" y="323" type="curve" smooth="yes"/>
      <point x="254" y="323"/>
      <point x="268" y="341"/>
      <point x="284" y="396" type="curve" smooth="yes"/>
      <point x="526" y="1237" type="line"/>
      <point x="550" y="1237" type="line"/>
      <point x="792" y="396" type="line" smooth="yes"/>
      <point x="808" y="341"/>
      <point x="822" y="323"/>
      <point x="920" y="323" type="curve" smooth="yes"/>
      <point x="1005" y="323"/>
      <point x="1036" y="341"/>
      <point x="1022" y="396" type="curve" smooth="yes"/>
      <point x="721" y="1595" type="line" smooth="yes"/>
      <point x="703" y="1658"/>
      <point x="673" y="1684"/>
    </contour>
    <contour>
      <point x="532" y="-170" type="move" name="btm"/>
    </contour>
    <contour>
      <point x="532" y="1700" type="move" name="top"/>
    </contour>
  </outline>
</glyph>
<glyph name="grave" format="1">
  <advance width="0"/>
  <unicode hex="0060"/>
  <outline>
    <contour>
      <point x="57" y="1522" type="line"/>
      <point x="84" y="1472"/>
      <point x="106" y="1444"/>
      <point x="106" y="1419" type="curve" smooth="yes"/>
      <point x="106" y="1393"/>
      <point x="78" y="1382"/>
      <point x="10" y="1382" type="curve" smooth="yes"/>
      <point x="-86" y="1382"/>
      <point x="-92" y="1393"/>
      <point x="-129" y="1441" type="curve" smooth="yes"/>
      <point x="-301" y="1667" type="line" smooth="yes"/>
      <point x="-325" y="1698"/>
      <point x="-343" y="1724"/>
      <point x="-343" y="1745" type="curve" smooth="yes"/>
      <point x="-343" y="1772"/>
      <point x="-319" y="1784"/>
      <point x="-209" y="1784" type="curve" smooth="yes"/>
      <point x="-98" y="1784"/>
      <point x="-78" y="1775"/>
      <point x="-50" y="1722" type="curve" smooth="yes"/>
    </contour>
    <contour>
      <point x="0" y="1700" type="move" name="_top"/>
    </contour>
  </outline>
</glyph>
<glyph name="b" format="1">
  <advance width="1100"/>
  <unicode hex="0062"/>
  <outline>
    <contour>
      <point x="425" y="939" type="line"/>
      <point x="454" y="971"/>
      <point x="512" y="1007"/>
      <point x="567" y="1007" type="curve" smooth="yes"/>
      <point x="626" y="1007"/>
      <point x="678" y="975"/>
      <point x="680" y="883" type="curve" smooth="yes"/>
      <point x="695" y="320" type="line" smooth="yes"/>
      <point x="698" y="222"/>
      <point x="645" y="167"/>
      <point x="560" y="167" type="curve" smooth="yes"/>
      <point x="487" y="167"/>
      <point x="430" y="209"/>
      <point x="405" y="243" type="curve"/>
      <point x="399" y="110" type="line"/>
      <point x="454" y="56"/>
      <point x="548" y="-12"/>
      <point x="685" y="-12" type="curve" smooth="yes"/>
      <point x="857" y="-12"/>
      <point x="963" y="79"/>
      <point x="971" y="320" type="curve" smooth="yes"/>
      <point x="989" y="883" type="line" smooth="yes"/>
      <point x="995" y="1076"/>
      <point x="870" y="1214"/>
      <point x="684" y="1214" type="curve" smooth="yes"/>
      <point x="556" y="1214"/>
      <point x="469" y="1131"/>
      <point x="429" y="1082" type="curve"/>
    </contour>
    <contour>
      <point x="293" y="0" type="curve" smooth="yes"/>
      <point x="396" y="0"/>
      <point x="413" y="7"/>
      <point x="414" y="57" type="curve" smooth="yes"/>
      <point x="415" y="133" type="line"/>
      <point x="427" y="167" type="line"/>
      <point x="455" y="1651" type="line" smooth="yes"/>
      <point x="456" y="1708"/>
      <point x="438" y="1724"/>
      <point x="293" y="1724" type="curve" smooth="yes"/>
      <point x="148" y="1724"/>
      <point x="130" y="1708"/>
      <point x="131" y="1651" type="curve" smooth="yes"/>
      <point x="163" y="57" type="line" smooth="yes"/>
      <point x="164" y="7"/>
      <point x="181" y="0"/>
    </contour>
    <contour>
      <point x="560" y="-170" type="move" name="btm"/>
    </contour>
    <contour>
      <point x="701" y="1700" type="move" name="top"/>
    </contour>
  </outline>
</glyph>
<glyph name="c" format="1">
  <advance width="1062"/>
  <unicode hex="0063"/>
  <outline>
    <contour>
      <point x="949" y="291" type="line"/>
      <point x="949" y="341"/>
      <point x="930" y="355"/>
      <point x="812" y="355" type="curve" smooth="yes"/>
      <point x="693" y="355"/>
      <point x="674" y="340"/>
      <point x="674" y="290" type="curve" smooth="yes"/>
      <point x="674" y="259" type="line" smooth="yes"/>
      <point x="674" y="164"/>
      <point x="634" y="132"/>
      <point x="541" y="132" type="curve" smooth="yes"/>
      <point x="448" y="132"/>
      <point x="405" y="166"/>
      <point x="408" y="268" type="curve" smooth="yes"/>
      <point x="428" y="927" type="line" smooth="yes"/>
      <point x="431" y="1040"/>
      <point x="475" y="1058"/>
      <point x="541" y="1058" type="curve" smooth="yes"/>
      <point x="607" y="1058"/>
      <point x="651" y="1040"/>
      <point x="654" y="927" type="curve" smooth="yes"/>
      <point x="663" y="599" type="line" smooth="yes"/>
      <point x="665" y="549"/>
      <point x="687" y="542"/>
      <point x="812" y="542" type="curve" smooth="yes"/>
      <point x="936" y="542"/>
      <point x="959" y="549"/>
      <point x="961" y="599" type="curve" smooth="yes"/>
      <point x="971" y="910" type="line" smooth="yes"/>
      <point x="979" y="1123"/>
      <point x="768" y="1214"/>
      <point x="541" y="1214" type="curve" smooth="yes"/>
      <point x="319" y="1214"/>
      <point x="103" y="1123"/>
      <point x="111" y="910" type="curve" smooth="yes"/>
      <point x="134" y="276" type="line" smooth="yes"/>
      <point x="142" y="58"/>
      <point x="335" y="-12"/>
      <point x="542" y="-12" type="curve" smooth="yes"/>
      <point x="747" y="-12"/>
      <point x="949" y="57"/>
      <point x="949" y="267" type="curve"/>
    </contour>
    <contour>
      <point x="541" y="-170" type="move" name="btm"/>
    </contour>
    <contour>
      <point x="541" y="1700" type="move" name="top"/>
    </contour>
  </outline>
</glyph>
<glyph name="f" format="1">
  <advance width="635"/>
  <unicode hex="0066"/>
  <outline>
    <contour>
      <point x="590" y="1544" type="line"/>
      <point x="642" y="1544"/>
      <point x="644" y="1567"/>
      <point x="644" y="1634" type="curve" smooth="yes"/>
      <point x="644" y="1708"/>
      <point x="642" y="1724"/>
      <point x="572" y="1724" type="curve" smooth="yes"/>
      <point x="440" y="1724" type="line" smooth="yes"/>
      <point x="230" y="1724"/>
      <point x="132" y="1557"/>
      <point x="135" y="1384" type="curve" smooth="yes"/>
      <point x="162" y="57" type="line" smooth="yes"/>
      <point x="163" y="7"/>
      <point x="180" y="0"/>
      <point x="292" y="0" type="curve" smooth="yes"/>
      <point x="404" y="0"/>
      <point x="422" y="7"/>
      <point x="423" y="57" type="curve" smooth="yes"/>
      <point x="450" y="1413" type="line" smooth="yes"/>
      <point x="452" y="1520"/>
      <point x="510" y="1544"/>
      <point x="550" y="1544" type="curve" smooth="yes"/>
    </contour>
    <contour>
      <point x="524" y="926" type="line"/>
      <point x="594" y="926"/>
      <point x="596" y="944"/>
      <point x="596" y="1026" type="curve" smooth="yes"/>
      <point x="596" y="1100"/>
      <point x="594" y="1116"/>
      <point x="524" y="1116" type="curve" smooth="yes"/>
      <point x="110" y="1116" type="line" smooth="yes"/>
      <point x="40" y="1116"/>
      <point x="38" y="1100"/>
      <point x="38" y="1026" type="curve" smooth="yes"/>
      <point x="38" y="944"/>
      <point x="40" y="926"/>
      <point x="110" y="926" type="curve" smooth="yes"/>
    </contour>
    <contour>
      <point x="349" y="-170" type="move" name="btm"/>
    </contour>
    <contour>
      <point x="349" y="1700" type="move" name="top"/>
    </contour>
  </outline>
</glyph>
<glyph name="g" format="1">
  <advance width="1068"/>
  <unicode hex="0067"/>
  <outline>
    <contour>
      <point x="661" y="1082" type="line"/>
      <point x="621" y="1131"/>
      <point x="534" y="1214"/>
      <point x="406" y="1214" type="curve" smooth="yes"/>
      <point x="220" y="1214"/>
      <point x="95" y="1076"/>
      <point x="101" y="883" type="curve" smooth="yes"/>
      <point x="119" y="320" type="line" smooth="yes"/>
      <point x="127" y="79"/>
      <point x="233" y="-12"/>
      <point x="405" y="-12" type="curve" smooth="yes"/>
      <point x="542" y="-12"/>
      <point x="636" y="56"/>
      <point x="691" y="110" type="curve"/>
      <point x="685" y="243" type="line"/>
      <point x="660" y="209"/>
      <point x="603" y="167"/>
      <point x="530" y="167" type="curve" smooth="yes"/>
      <point x="445" y="167"/>
      <point x="392" y="222"/>
      <point x="395" y="320" type="curve" smooth="yes"/>
      <point x="410" y="883" type="line" smooth="yes"/>
      <point x="412" y="975"/>
      <point x="464" y="1007"/>
      <point x="523" y="1007" type="curve" smooth="yes"/>
      <point x="578" y="1007"/>
      <point x="636" y="971"/>
      <point x="665" y="939" type="curve"/>
    </contour>
    <contour>
      <point x="508" y="-420" type="curve" smooth="yes"/>
      <point x="761" y="-420"/>
      <point x="917" y="-349"/>
      <point x="923" y="-131" type="curve" smooth="yes"/>
      <point x="949" y="1129" type="line" smooth="yes"/>
      <point x="950" y="1186"/>
      <point x="933" y="1202"/>
      <point x="797" y="1202" type="curve" smooth="yes"/>
      <point x="661" y="1202"/>
      <point x="642" y="1186"/>
      <point x="643" y="1129" type="curve" smooth="yes"/>
      <point x="645" y="1054" type="line"/>
      <point x="626" y="1023" type="line"/>
      <point x="653" y="-108" type="line" smooth="yes"/>
      <point x="656" y="-210"/>
      <point x="611" y="-245"/>
      <point x="495" y="-245" type="curve" smooth="yes"/>
      <point x="407" y="-245"/>
      <point x="362" y="-236"/>
      <point x="330" y="-234" type="curve" smooth="yes"/>
      <point x="299" y="-232"/>
      <point x="293" y="-257"/>
      <point x="293" y="-324" type="curve" smooth="yes"/>
      <point x="293" y="-388"/>
      <point x="298" y="-402"/>
      <point x="330" y="-408" type="curve" smooth="yes"/>
      <point x="364" y="-414"/>
      <point x="415" y="-420"/>
    </contour>
    <contour>
      <point x="525" y="-170" type="move" name="btm"/>
    </contour>
    <contour>
      <point x="525" y="1700" type="move" name="top"/>
    </contour>
  </outline>
</glyph>
<glyph name="n" format="1">
  <advance width="1079"/>
  <unicode hex="006E"/>
  <outline>
    <contour>
      <point x="283" y="0" type="curve" smooth="yes"/>
      <point x="395" y="0"/>
      <point x="413" y="7"/>
      <point x="414" y="57" type="curve" smooth="yes"/>
      <point x="442" y="1010" type="line"/>
      <point x="423" y="1035" type="line"/>
      <point x="425" y="1129" type="line" smooth="yes"/>
      <point x="426" y="1186"/>
      <point x="409" y="1202"/>
      <point x="273" y="1202" type="curve" smooth="yes"/>
      <point x="137" y="1202"/>
      <point x="120" y="1186"/>
      <point x="121" y="1129" type="curve" smooth="yes"/>
      <point x="153" y="57" type="line" smooth="yes"/>
      <point x="154" y="7"/>
      <point x="171" y="0"/>
    </contour>
    <contour>
      <point x="978" y="890" type="line"/>
      <point x="984" y="1092"/>
      <point x="861" y="1214"/>
      <point x="698" y="1214" type="curve" smooth="yes"/>
      <point x="521" y="1214"/>
      <point x="432" y="1082"/>
      <point x="316" y="934" type="curve"/>
      <point x="316" y="934"/>
      <point x="408" y="866"/>
      <point x="408" y="866" type="curve"/>
      <point x="433" y="925"/>
      <point x="483" y="994"/>
      <point x="556" y="994" type="curve" smooth="yes"/>
      <point x="621" y="994"/>
      <point x="667" y="966"/>
      <point x="670" y="861" type="curve" smooth="yes"/>
      <point x="693" y="57" type="line" smooth="yes"/>
      <point x="694" y="7"/>
      <point x="711" y="0"/>
      <point x="823" y="0" type="curve" smooth="yes"/>
      <point x="935" y="0"/>
      <point x="953" y="7"/>
      <point x="954" y="57" type="curve" smooth="yes"/>
    </contour>
    <contour>
      <point x="549" y="-170" type="move" name="btm"/>
    </contour>
    <contour>
      <point x="549" y="1700" type="move" name="top"/>
    </contour>
  </outline>
</glyph>
<glyph name="q" format="1">
  <advance width="1078"/>
  <unicode hex="0071"/>
  <outline>
    <contour>
      <point x="671" y="1082" type="line"/>
      <point x="631" y="1131"/>
      <point x="544" y="1214"/>
      <point x="416" y="1214" type="curve" smooth="yes"/>
      <point x="230" y="1214"/>
      <point x="105" y="1076"/>
      <point x="111" y="883" type="curve" smooth="yes"/>
      <point x="129" y="320" type="line" smooth="yes"/>
      <point x="137" y="79"/>
      <point x="243" y="-12"/>
      <point x="415" y="-12" type="curve" smooth="yes"/>
      <point x="552" y="-12"/>
      <point x="646" y="56"/>
      <point x="701" y="110" type="curve"/>
      <point x="695" y="243" type="line"/>
      <point x="670" y="209"/>
      <point x="613" y="167"/>
      <point x="540" y="167" type="curve" smooth="yes"/>
      <point x="455" y="167"/>
      <point x="402" y="222"/>
      <point x="405" y="320" type="curve" smooth="yes"/>
      <point x="420" y="883" type="line" smooth="yes"/>
      <point x="422" y="975"/>
      <point x="474" y="1007"/>
      <point x="533" y="1007" type="curve" smooth="yes"/>
      <point x="588" y="1007"/>
      <point x="646" y="971"/>
      <point x="675" y="939" type="curve"/>
    </contour>
    <contour>
      <point x="800" y="-420" type="curve" smooth="yes"/>
      <point x="911" y="-420"/>
      <point x="929" y="-413"/>
      <point x="930" y="-363" type="curve" smooth="yes"/>
      <point x="962" y="1129" type="line"/>
      <point x="964" y="1186"/>
      <point x="946" y="1202"/>
      <point x="810" y="1202" type="curve" smooth="yes"/>
      <point x="674" y="1202"/>
      <point x="656" y="1186"/>
      <point x="658" y="1129" type="curve"/>
      <point x="659" y="1051" type="line"/>
      <point x="640" y="1014" type="line"/>
      <point x="671" y="-363" type="line" smooth="yes"/>
      <point x="672" y="-413"/>
      <point x="688" y="-420"/>
    </contour>
    <contour>
      <point x="536" y="-170" type="move" name="btm"/>
    </contour>
    <contour>
      <point x="536" y="1700" type="move" name="top"/>
    </contour>
  </outline>
</glyph>
<glyph name="r" format="1">
  <advance width="952"/>
  <unicode hex="0072"/>
  <outline>
    <contour>
      <point x="283" y="0" type="curve" smooth="yes"/>
      <point x="395" y="0"/>
      <point x="413" y="7"/>
      <point x="414" y="57" type="curve" smooth="yes"/>
      <point x="442" y="1010" type="line"/>
      <point x="425" y="1035" type="line"/>
      <point x="425" y="1129" type="line" smooth="yes"/>
      <point x="425" y="1186"/>
      <point x="409" y="1202"/>
      <point x="273" y="1202" type="curve" smooth="yes"/>
      <point x="137" y="1202"/>
      <point x="120" y="1186"/>
      <point x="121" y="1129" type="curve" smooth="yes"/>
      <point x="153" y="57" type="line" smooth="yes"/>
      <point x="154" y="7"/>
      <point x="171" y="0"/>
    </contour>
    <contour>
      <point x="912" y="954" type="line"/>
      <point x="918" y="1143"/>
      <point x="821" y="1214"/>
      <point x="692" y="1214" type="curve" smooth="yes"/>
      <point x="526" y="1214"/>
      <point x="424" y="1076"/>
      <point x="316" y="934" type="curve"/>
      <point x="316" y="934"/>
      <point x="400" y="866"/>
      <point x="400" y="866" type="curve"/>
      <point x="429" y="909"/>
      <point x="481" y="994"/>
      <point x="542" y="994" type="curve" smooth="yes"/>
      <point x="589" y="994"/>
      <point x="619" y="966"/>
      <point x="622" y="861" type="curve" smooth="yes"/>
      <point x="626" y="724" type="line" smooth="yes"/>
      <point x="628" y="674"/>
      <point x="643" y="667"/>
      <point x="764" y="667" type="curve" smooth="yes"/>
      <point x="885" y="667"/>
      <point x="904" y="674"/>
      <point x="905" y="724" type="curve" smooth="yes"/>
    </contour>
    <contour>
      <point x="283" y="-170" type="move" name="btm"/>
    </contour>
    <contour>
      <point x="441" y="1700" type="move" name="top"/>
    </contour>
  </outline>
</glyph>
<glyph name="t" format="1">
  <advance width="638"/>
  <unicode hex="0074"/>
  <outline>
    <contour>
      <point x="319" y="0" type="curve" smooth="yes"/>
      <point x="431" y="0"/>
      <point x="449" y="7"/>
      <point x="450" y="57" type="curve" smooth="yes"/>
      <point x="481" y="1395" type="line" smooth="yes"/>
      <point x="482" y="1452"/>
      <point x="464" y="1468"/>
      <point x="319" y="1468" type="curve" smooth="yes"/>
      <point x="174" y="1468"/>
      <point x="156" y="1452"/>
      <point x="157" y="1395" type="curve" smooth="yes"/>
      <point x="189" y="57" type="line" smooth="yes"/>
      <point x="190" y="7"/>
      <point x="207" y="0"/>
    </contour>
    <contour>
      <point x="526" y="926" type="line"/>
      <point x="596" y="926"/>
      <point x="598" y="944"/>
      <point x="598" y="1026" type="curve" smooth="yes"/>
      <point x="598" y="1100"/>
      <point x="596" y="1116"/>
      <point x="526" y="1116" type="curve" smooth="yes"/>
      <point x="112" y="1116" type="line" smooth="yes"/>
      <point x="42" y="1116"/>
      <point x="40" y="1100"/>
      <point x="40" y="1026" type="curve" smooth="yes"/>
      <point x="40" y="944"/>
      <point x="42" y="926"/>
      <point x="112" y="926" type="curve" smooth="yes"/>
    </contour>
    <contour>
      <point x="319" y="-170" type="move" name="btm"/>
    </contour>
    <contour>
      <point x="319" y="1700" type="move" name="top"/>
    </contour>
  </outline>
</glyph>
<glyph name="v" format="1">
  <advance width="958"/>
  <unicode hex="0076"/>
  <outline>
    <contour>
      <point x="491" y="240" type="line"/>
      <point x="610" y="1129" type="line" smooth="yes"/>
      <point x="618" y="1186"/>
      <point x="627" y="1202"/>
      <point x="772" y="1202" type="curve" smooth="yes"/>
      <point x="917" y="1202"/>
      <point x="949" y="1184"/>
      <point x="934" y="1129" type="curve" smooth="yes"/>
      <point x="662" y="57" type="line" smooth="yes"/>
      <point x="649" y="9"/>
      <point x="636" y="0"/>
      <point x="532" y="0" type="curve" smooth="yes"/>
      <point x="479" y="0" type="line"/>
      <point x="426" y="0" type="line" smooth="yes"/>
      <point x="322" y="0"/>
      <point x="309" y="9"/>
      <point x="296" y="57" type="curve" smooth="yes"/>
      <point x="24" y="1129" type="line" smooth="yes"/>
      <point x="9" y="1184"/>
      <point x="41" y="1202"/>
      <point x="186" y="1202" type="curve" smooth="yes"/>
      <point x="331" y="1202"/>
      <point x="340" y="1186"/>
      <point x="348" y="1129" type="curve" smooth="yes"/>
      <point x="467" y="240" type="line"/>
    </contour>
    <contour>
      <point x="479" y="-170" type="move" name="btm"/>
    </contour>
    <contour>
      <point x="479" y="1700" type="move" name="top"/>
    </contour>
  </outline>
</glyph>
<glyph name="z" format="1">
  <advance width="823"/>
  <unicode hex="007A"/>
  <outline>
    <contour>
      <point x="317" y="57" type="line"/>
      <point x="781" y="1081" type="line" smooth="yes"/>
      <point x="804" y="1144"/>
      <point x="795" y="1202"/>
      <point x="716" y="1202" type="curve" smooth="yes"/>
      <point x="630" y="1202" type="line"/>
      <point x="473" y="1129" type="line"/>
      <point x="72" y="116" type="line" smooth="yes"/>
      <point x="47" y="53"/>
      <point x="56" y="0"/>
      <point x="168" y="0" type="curve" smooth="yes"/>
      <point x="231" y="0" type="line"/>
    </contour>
    <contour>
      <point x="687" y="992" type="line"/>
      <point x="687" y="1202" type="line"/>
      <point x="102" y="1202" type="line" smooth="yes"/>
      <point x="32" y="1202"/>
      <point x="30" y="1182"/>
      <point x="30" y="1092" type="curve" smooth="yes"/>
      <point x="30" y="1010"/>
      <point x="32" y="992"/>
      <point x="102" y="992" type="curve" smooth="yes"/>
    </contour>
    <contour>
      <point x="690" y="0" type="line"/>
      <point x="760" y="0"/>
      <point x="762" y="16"/>
      <point x="762" y="90" type="curve" smooth="yes"/>
      <point x="762" y="164"/>
      <point x="760" y="180"/>
      <point x="690" y="180" type="curve" smooth="yes"/>
      <point x="179" y="180" type="line"/>
      <point x="179" y="0" type="line"/>
    </contour>
    <contour>
      <point x="411" y="-170" type="move" name="btm"/>
    </contour>
    <contour>
      <point x="411" y="1700" type="move" name="top"/>
    </contour>
  </outline>
</glyph>
<glyph name="bar" format="1">
  <advance width="508"/>
  <unicode hex="007C"/>
  <outline>
    <contour>
      <point x="255" y="-420" type="curve"/>
      <point x="323" y="-420"/>
      <point x="339" y="-412"/>
      <point x="340" y="-362" type="curve" smooth="yes"/>
      <point x="371" y="1652" type="line" smooth="yes"/>
      <point x="372" y="1709"/>
      <point x="355" y="1724"/>
      <point x="254" y="1724" type="curve" smooth="yes"/>
      <point x="154" y="1724"/>
      <point x="136" y="1708"/>
      <point x="137" y="1651" type="curve" smooth="yes"/>
      <point x="170" y="-363" type="line" smooth="yes"/>
      <point x="171" y="-413"/>
      <point x="187" y="-421"/>
    </contour>
  </outline>
</glyph>
<glyph name="braceright" format="1">
  <advance width="775"/>
  <unicode hex="007D"/>
  <outline>
    <contour>
      <point x="655" y="624" type="line"/>
      <point x="571" y="624"/>
      <point x="519" y="597"/>
      <point x="516" y="497" type="curve" smooth="yes"/>
      <point x="504" y="46" type="line" smooth="yes"/>
      <point x="498" y="-175"/>
      <point x="421" y="-294"/>
      <point x="165" y="-294" type="curve" smooth="yes"/>
      <point x="112" y="-294" type="line" smooth="yes"/>
      <point x="62" y="-294"/>
      <point x="51" y="-287"/>
      <point x="51" y="-214" type="curve" smooth="yes"/>
      <point x="51" y="-141"/>
      <point x="56" y="-129"/>
      <point x="106" y="-128" type="curve" smooth="yes"/>
      <point x="148" y="-128" type="line" smooth="yes"/>
      <point x="269" y="-128"/>
      <point x="304" y="-72"/>
      <point x="301" y="46" type="curve" smooth="yes"/>
      <point x="292" y="425" type="line" smooth="yes"/>
      <point x="289" y="570"/>
      <point x="299" y="629"/>
      <point x="432" y="714" type="curve"/>
      <point x="432" y="722" type="line"/>
      <point x="295" y="804"/>
      <point x="283" y="905"/>
      <point x="281" y="1039" type="curve" smooth="yes"/>
      <point x="272" y="1540" type="line" smooth="yes"/>
      <point x="269" y="1684"/>
      <point x="245" y="1725"/>
      <point x="133" y="1725" type="curve" smooth="yes"/>
      <point x="79" y="1725" type="line" smooth="yes"/>
      <point x="32" y="1725"/>
      <point x="20" y="1737"/>
      <point x="20" y="1818" type="curve" smooth="yes"/>
      <point x="20" y="1891"/>
      <point x="24" y="1902"/>
      <point x="80" y="1902" type="curve" smooth="yes"/>
      <point x="199" y="1902" type="line" smooth="yes"/>
      <point x="487" y="1902"/>
      <point x="549" y="1748"/>
      <point x="544" y="1540" type="curve" smooth="yes"/>
      <point x="529" y="954" type="line" smooth="yes"/>
      <point x="526" y="847"/>
      <point x="573" y="804"/>
      <point x="655" y="804" type="curve" smooth="yes"/>
      <point x="673" y="804" type="line" smooth="yes"/>
      <point x="734" y="804"/>
      <point x="735" y="781"/>
      <point x="735" y="714" type="curve" smooth="yes"/>
      <point x="735" y="648"/>
      <point x="733" y="624"/>
      <point x="673" y="624" type="curve" smooth="yes"/>
    </contour>
  </outline>
</glyph>
<glyph name="asciitilde" format="1">
  <advance width="1335"/>
  <unicode hex="007E"/>
  <outline>
    <contour>
      <point x="915" y="528" type="line"/>
      <point x="995" y="528"/>
      <point x="1024" y="545"/>
      <point x="1064" y="615" type="curve" smooth="yes"/>
      <point x="1238" y="929" type="line" smooth="yes"/>
      <point x="1264" y="975"/>
      <point x="1275" y="1006"/>
      <point x="1275" y="1033" type="curve" smooth="yes"/>
      <point x="1275" y="1071"/>
      <point x="1235" y="1073"/>
      <point x="1130" y="1073" type="curve" smooth="yes"/>
      <point x="1017" y="1073"/>
      <point x="1008" y="1068"/>
      <point x="982" y="1014" type="curve" smooth="yes"/>
      <point x="904" y="855" type="line" smooth="yes"/>
      <point x="885" y="816"/>
      <point x="871" y="788"/>
      <point x="854" y="788" type="curve" smooth="yes"/>
      <point x="838" y="788"/>
      <point x="819" y="810"/>
      <point x="801" y="830" type="curve" smooth="yes"/>
      <point x="621" y="1016" type="line" smooth="yes"/>
      <point x="583" y="1056"/>
      <point x="565" y="1073"/>
      <point x="483" y="1073" type="curve" smooth="yes"/>
      <point x="423" y="1073" type="line" smooth="yes"/>
      <point x="336" y="1073"/>
      <point x="302" y="1068"/>
      <point x="267" y="997" type="curve" smooth="yes"/>
      <point x="94" y="664" type="line" smooth="yes"/>
      <point x="72" y="619"/>
      <point x="60" y="594"/>
      <point x="60" y="570" type="curve" smooth="yes"/>
      <point x="60" y="538"/>
      <point x="88" y="527"/>
      <point x="165" y="527" type="curve" smooth="yes"/>
      <point x="274" y="527"/>
      <point x="286" y="531"/>
      <point x="319" y="587" type="curve" smooth="yes"/>
      <point x="403" y="734" type="line" smooth="yes"/>
      <point x="426" y="772"/>
      <point x="435" y="788"/>
      <point x="453" y="788" type="curve" smooth="yes"/>
      <point x="465" y="788"/>
      <point x="475" y="778"/>
      <point x="506" y="747" type="curve" smooth="yes"/>
      <point x="655" y="598" type="line" smooth="yes"/>
      <point x="717" y="535"/>
      <point x="743" y="528"/>
      <point x="819" y="528" type="curve" smooth="yes"/>
    </contour>
  </outline>
</glyph>
<glyph name="exclamdown" format="1">
  <advance width="620"/>
  <unicode hex="00A1"/>
  <outline>
    <contour>
      <point x="310" y="0" type="curve" smooth="yes"/>
      <point x="434" y="0"/>
      <point x="444" y="7"/>
      <point x="447" y="69" type="curve" smooth="yes"/>
      <point x="477" y="1040" type="line" smooth="yes"/>
      <point x="480" y="1110"/>
      <point x="452" y="1124"/>
      <point x="310" y="1124" type="curve" smooth="yes"/>
      <point x="168" y="1124"/>
      <point x="140" y="1110"/>
      <point x="143" y="1040" type="curve" smooth="yes"/>
      <point x="169" y="69" type="line" smooth="yes"/>
      <point x="171" y="7"/>
      <point x="186" y="0"/>
    </contour>
    <contour>
      <point x="310" y="1375" type="curve" smooth="yes"/>
      <point x="458" y="1375"/>
      <point x="485" y="1382"/>
      <point x="488" y="1432" type="curve" smooth="yes"/>
      <point x="494" y="1638" type="line" smooth="yes"/>
      <point x="496" y="1703"/>
      <point x="480" y="1724"/>
      <point x="310" y="1724" type="curve" smooth="yes"/>
      <point x="140" y="1724"/>
      <point x="124" y="1702"/>
      <point x="126" y="1637" type="curve" smooth="yes"/>
      <point x="132" y="1432" type="line" smooth="yes"/>
      <point x="136" y="1377"/>
      <point x="170" y="1375"/>
    </contour>
  </outline>
</glyph>
<glyph name="sterling" format="1">
  <advance width="1215"/>
  <unicode hex="00A3"/>
  <outline>
    <contour>
      <point x="556" y="1384" type="line"/>
      <point x="559" y="1500"/>
      <point x="599" y="1516"/>
      <point x="679" y="1516" type="curve" smooth="yes"/>
      <point x="758" y="1516"/>
      <point x="798" y="1500"/>
      <point x="801" y="1384" type="curve" smooth="yes"/>
      <point x="813" y="960" type="line" smooth="yes"/>
      <point x="815" y="879"/>
      <point x="852" y="868"/>
      <point x="970" y="868" type="curve" smooth="yes"/>
      <point x="1087" y="868"/>
      <point x="1120" y="879"/>
      <point x="1122" y="960" type="curve" smooth="yes"/>
      <point x="1132" y="1376" type="line" smooth="yes"/>
      <point x="1137" y="1576"/>
      <point x="983" y="1696"/>
      <point x="679" y="1696" type="curve" smooth="yes"/>
      <point x="383" y="1696"/>
      <point x="217" y="1576"/>
      <point x="224" y="1376" type="curve" smooth="yes"/>
      <point x="262" y="339" type="line"/>
      <point x="264" y="230"/>
      <point x="241" y="180"/>
      <point x="219" y="130" type="curve"/>
      <point x="208" y="70"/>
      <point x="222" y="63"/>
      <point x="308" y="63" type="curve" smooth="yes"/>
      <point x="414" y="63"/>
      <point x="414" y="73"/>
      <point x="439" y="130" type="curve" smooth="yes"/>
      <point x="474" y="188"/>
      <point x="510" y="266"/>
      <point x="520" y="406" type="curve"/>
    </contour>
    <contour>
      <point x="776" y="480" type="line"/>
      <point x="846" y="480"/>
      <point x="848" y="503"/>
      <point x="848" y="575" type="curve" smooth="yes"/>
      <point x="848" y="656"/>
      <point x="846" y="682"/>
      <point x="776" y="682" type="curve" smooth="yes"/>
      <point x="176" y="682" type="line" smooth="yes"/>
      <point x="106" y="682"/>
      <point x="104" y="657"/>
      <point x="104" y="576" type="curve" smooth="yes"/>
      <point x="104" y="504"/>
      <point x="106" y="480"/>
      <point x="176" y="480" type="curve" smooth="yes"/>
    </contour>
    <contour>
      <point x="1024" y="-1" type="line"/>
      <point x="1094" y="-1"/>
      <point x="1096" y="22"/>
      <point x="1096" y="94" type="curve" smooth="yes"/>
      <point x="1096" y="174"/>
      <point x="1094" y="201"/>
      <point x="1024" y="201" type="curve" smooth="yes"/>
      <point x="186" y="201" type="line" smooth="yes"/>
      <point x="116" y="201"/>
      <point x="114" y="175"/>
      <point x="114" y="95" type="curve" smooth="yes"/>
      <point x="114" y="23"/>
      <point x="116" y="-1"/>
      <point x="186" y="-1" type="curve" smooth="yes"/>
    </contour>
  </outline>
</glyph>
<glyph name="currency" format="1">
  <advance width="1360"/>
  <unicode hex="00A4"/>
  <outline>
    <contour>
      <point x="679" y="326" type="curve" smooth="yes"/>
      <point x="861" y="326"/>
      <point x="1040" y="392"/>
      <point x="1044" y="546" type="curve" smooth="yes"/>
      <point x="1050" y="807" type="line" smooth="yes"/>
      <point x="1054" y="954"/>
      <point x="869" y="1026"/>
      <point x="682" y="1026" type="curve" smooth="yes"/>
      <point x="494" y="1026"/>
      <point x="304" y="953"/>
      <point x="308" y="805" type="curve" smooth="yes"/>
      <point x="314" y="544" type="line" smooth="yes"/>
      <point x="318" y="390"/>
      <point x="497" y="326"/>
    </contour>
    <contour>
      <point x="679" y="864" type="curve" smooth="yes"/>
      <point x="755" y="864"/>
      <point x="842" y="850"/>
      <point x="845" y="745" type="curve"/>
      <point x="850" y="612" type="line" smooth="yes"/>
      <point x="853" y="518"/>
      <point x="769" y="487"/>
      <point x="679" y="485" type="curve"/>
      <point x="589" y="485"/>
      <point x="505" y="516"/>
      <point x="508" y="610" type="curve" smooth="yes"/>
      <point x="513" y="743" type="line"/>
      <point x="516" y="848"/>
      <point x="603" y="864"/>
    </contour>
    <contour>
      <point x="578" y="932" type="line"/>
      <point x="429" y="1148" type="line" smooth="yes"/>
      <point x="390" y="1205"/>
      <point x="375" y="1210"/>
      <point x="271" y="1210" type="curve" smooth="yes"/>
      <point x="160" y="1210"/>
      <point x="128" y="1200"/>
      <point x="128" y="1167" type="curve" smooth="yes"/>
      <point x="128" y="1146"/>
      <point x="139" y="1127"/>
      <point x="173" y="1089" type="curve" smooth="yes"/>
      <point x="365" y="869" type="line"/>
    </contour>
    <contour>
      <point x="388" y="520" type="line"/>
      <point x="209" y="280" type="line" smooth="yes"/>
      <point x="181" y="242"/>
      <point x="162" y="220"/>
      <point x="162" y="199" type="curve" smooth="yes"/>
      <point x="162" y="166"/>
      <point x="179" y="159"/>
      <point x="258" y="159" type="curve" smooth="yes"/>
      <point x="311" y="159"/>
      <point x="343" y="156"/>
      <point x="384" y="205" type="curve" smooth="yes"/>
      <point x="529" y="379" type="line"/>
    </contour>
    <contour>
      <point x="993" y="869" type="line"/>
      <point x="1185" y="1089" type="line" smooth="yes"/>
      <point x="1219" y="1127"/>
      <point x="1230" y="1146"/>
      <point x="1230" y="1167" type="curve" smooth="yes"/>
      <point x="1230" y="1200"/>
      <point x="1198" y="1210"/>
      <point x="1087" y="1210" type="curve" smooth="yes"/>
      <point x="983" y="1210"/>
      <point x="968" y="1205"/>
      <point x="929" y="1148" type="curve" smooth="yes"/>
      <point x="780" y="932" type="line"/>
    </contour>
    <contour>
      <point x="829" y="381" type="line"/>
      <point x="974" y="206" type="line" smooth="yes"/>
      <point x="1014" y="157"/>
      <point x="1047" y="160"/>
      <point x="1100" y="160" type="curve" smooth="yes"/>
      <point x="1179" y="160"/>
      <point x="1196" y="167"/>
      <point x="1196" y="200" type="curve" smooth="yes"/>
      <point x="1196" y="221"/>
      <point x="1177" y="243"/>
      <point x="1149" y="281" type="curve" smooth="yes"/>
      <point x="970" y="522" type="line"/>
    </contour>
  </outline>
</glyph>
<glyph name="yen" format="1">
  <advance width="1135"/>
  <unicode hex="00A5"/>
  <outline>
    <contour>
      <point x="932" y="307" type="line"/>
      <point x="1002" y="307"/>
      <point x="1004" y="327"/>
      <point x="1004" y="392" type="curve" smooth="yes"/>
      <point x="1004" y="458"/>
      <point x="1002" y="479"/>
      <point x="932" y="479" type="curve" smooth="yes"/>
      <point x="230" y="479" type="line" smooth="yes"/>
      <point x="160" y="479"/>
      <point x="158" y="458"/>
      <point x="158" y="393" type="curve" smooth="yes"/>
      <point x="158" y="328"/>
      <point x="160" y="307"/>
      <point x="230" y="307" type="curve" smooth="yes"/>
    </contour>
    <contour>
      <point x="429" y="840" type="line"/>
      <point x="214" y="840" type="line" smooth="yes"/>
      <point x="144" y="840"/>
      <point x="142" y="816"/>
      <point x="142" y="744" type="curve" smooth="yes"/>
      <point x="142" y="679"/>
      <point x="144" y="658"/>
      <point x="214" y="658" type="curve" smooth="yes"/>
      <point x="429" y="658" type="line"/>
    </contour>
    <contour>
      <point x="702" y="658" type="line"/>
      <point x="949" y="658" type="line" smooth="yes"/>
      <point x="1019" y="658"/>
      <point x="1021" y="678"/>
      <point x="1021" y="743" type="curve" smooth="yes"/>
      <point x="1021" y="815"/>
      <point x="1019" y="840"/>
      <point x="949" y="840" type="curve" smooth="yes"/>
      <point x="702" y="840" type="line"/>
    </contour>
    <contour>
      <point x="721" y="623" type="line"/>
      <point x="1082" y="1541" type="line" smooth="yes"/>
      <point x="1094" y="1578"/>
      <point x="1105" y="1606"/>
      <point x="1105" y="1632" type="curve" smooth="yes"/>
      <point x="1105" y="1682"/>
      <point x="1070" y="1690"/>
      <point x="922" y="1690" type="curve" smooth="yes"/>
      <point x="773" y="1690"/>
      <point x="753" y="1688"/>
      <point x="735" y="1602" type="curve" smooth="yes"/>
      <point x="551" y="751" type="line"/>
      <point x="586" y="751" type="line"/>
      <point x="400" y="1602" type="line" smooth="yes"/>
      <point x="383" y="1687"/>
      <point x="362" y="1690"/>
      <point x="213" y="1690" type="curve" smooth="yes"/>
      <point x="65" y="1690"/>
      <point x="30" y="1682"/>
      <point x="30" y="1632" type="curve" smooth="yes"/>
      <point x="30" y="1606"/>
      <point x="39" y="1577"/>
      <point x="52" y="1541" type="curve" smooth="yes"/>
      <point x="415" y="630" type="line"/>
      <point x="428" y="68" type="line" smooth="yes"/>
      <point x="430" y="7"/>
      <point x="444" y="0"/>
      <point x="568" y="0" type="curve" smooth="yes"/>
      <point x="692" y="0"/>
      <point x="706" y="7"/>
      <point x="708" y="68" type="curve" smooth="yes"/>
    </contour>
    <contour>
      <point x="519" y="769" type="line"/>
      <point x="624" y="769" type="line"/>
      <point x="624" y="835" type="line"/>
      <point x="519" y="835" type="line"/>
    </contour>
  </outline>
</glyph>
<glyph name="brokenbar" format="1">
  <advance width="508"/>
  <unicode hex="00A6"/>
  <outline>
    <contour>
      <point x="371" y="1652" type="line"/>
      <point x="372" y="1709"/>
      <point x="355" y="1724"/>
      <point x="254" y="1724" type="curve" smooth="yes"/>
      <point x="154" y="1724"/>
      <point x="136" y="1708"/>
      <point x="137" y="1651" type="curve" smooth="yes"/>
      <point x="149" y="878" type="line" smooth="yes"/>
      <point x="150" y="828"/>
      <point x="171" y="820"/>
      <point x="255" y="820" type="curve" smooth="yes"/>
      <point x="339" y="820"/>
      <point x="358" y="828"/>
      <point x="359" y="878" type="curve" smooth="yes"/>
    </contour>
    <contour>
      <point x="355" y="325" type="line"/>
      <point x="357" y="390"/>
      <point x="337" y="397"/>
      <point x="254" y="397" type="curve" smooth="yes"/>
      <point x="172" y="397"/>
      <point x="152" y="389"/>
      <point x="154" y="324" type="curve" smooth="yes"/>
      <point x="163" y="-363" type="line" smooth="yes"/>
      <point x="164" y="-413"/>
      <point x="187" y="-420"/>
      <point x="255" y="-420" type="curve" smooth="yes"/>
      <point x="323" y="-420"/>
      <point x="346" y="-412"/>
      <point x="347" y="-362" type="curve" smooth="yes"/>
    </contour>
  </outline>
</glyph>
<glyph name="section" format="1">
  <advance width="1347"/>
  <unicode hex="00A7"/>
  <outline>
    <contour>
      <point x="1101" y="545" type="line"/>
      <point x="1101" y="690"/>
      <point x="1032" y="741"/>
      <point x="927" y="786" type="curve" smooth="yes"/>
      <point x="626" y="921" type="line" smooth="yes"/>
      <point x="546" y="957"/>
      <point x="527" y="994"/>
      <point x="530" y="1079" type="curve" smooth="yes"/>
      <point x="541" y="1410" type="line" smooth="yes"/>
      <point x="544" y="1527"/>
      <point x="589" y="1543"/>
      <point x="675" y="1543" type="curve" smooth="yes"/>
      <point x="761" y="1543"/>
      <point x="796" y="1527"/>
      <point x="801" y="1410" type="curve" smooth="yes"/>
      <point x="816" y="1059" type="line" smooth="yes"/>
      <point x="819" y="984"/>
      <point x="855" y="974"/>
      <point x="958" y="974" type="curve" smooth="yes"/>
      <point x="1082" y="974"/>
      <point x="1120" y="985"/>
      <point x="1125" y="1066" type="curve" smooth="yes"/>
      <point x="1146" y="1403" type="line" smooth="yes"/>
      <point x="1159" y="1603"/>
      <point x="980" y="1723"/>
      <point x="675" y="1723" type="curve" smooth="yes"/>
      <point x="364" y="1723"/>
      <point x="196" y="1587"/>
      <point x="201" y="1436" type="curve" smooth="yes"/>
      <point x="212" y="1102" type="line" smooth="yes"/>
      <point x="216" y="976"/>
      <point x="256" y="913"/>
      <point x="398" y="852" type="curve" smooth="yes"/>
      <point x="521" y="799" type="line"/>
      <point x="547" y="744" type="line"/>
      <point x="727" y="668" type="line" smooth="yes"/>
      <point x="817" y="634"/>
      <point x="818" y="592"/>
      <point x="818" y="526" type="curve" smooth="yes"/>
      <point x="818" y="361" type="line" smooth="yes"/>
      <point x="818" y="274"/>
      <point x="763" y="241"/>
      <point x="671" y="241" type="curve"/>
      <point x="671" y="126" type="line"/>
      <point x="865" y="126"/>
      <point x="1101" y="228"/>
      <point x="1101" y="387" type="curve" smooth="yes"/>
    </contour>
    <contour>
      <point x="262" y="-168" type="line"/>
      <point x="262" y="-351"/>
      <point x="464" y="-420"/>
      <point x="660" y="-420" type="curve" smooth="yes"/>
      <point x="892" y="-420"/>
      <point x="1075" y="-331"/>
      <point x="1075" y="-132" type="curve" smooth="yes"/>
      <point x="1075" y="-75" type="line" smooth="yes"/>
      <point x="1075" y="22"/>
      <point x="1051" y="67"/>
      <point x="954" y="118" type="curve" smooth="yes"/>
      <point x="798" y="192" type="line"/>
      <point x="798" y="212" type="line"/>
      <point x="602" y="278" type="line" smooth="yes"/>
      <point x="536" y="301"/>
      <point x="519" y="335"/>
      <point x="519" y="400" type="curve" smooth="yes"/>
      <point x="520" y="604" type="line" smooth="yes"/>
      <point x="520" y="690"/>
      <point x="578" y="718"/>
      <point x="639" y="718" type="curve"/>
      <point x="639" y="855" type="line"/>
      <point x="551" y="855"/>
      <point x="237" y="773"/>
      <point x="238" y="589" type="curve" smooth="yes"/>
      <point x="238" y="425" type="line" smooth="yes"/>
      <point x="239" y="263"/>
      <point x="285" y="221"/>
      <point x="415" y="172" type="curve" smooth="yes"/>
      <point x="652" y="86" type="line" smooth="yes"/>
      <point x="766" y="37"/>
      <point x="803" y="26"/>
      <point x="803" y="-81" type="curve" smooth="yes"/>
      <point x="803" y="-157" type="line" smooth="yes"/>
      <point x="803" y="-242"/>
      <point x="769" y="-276"/>
      <point x="675" y="-276" type="curve" smooth="yes"/>
      <point x="573" y="-276"/>
      <point x="537" y="-251"/>
      <point x="537" y="-177" type="curve" smooth="yes"/>
      <point x="537" y="-118" type="line" smooth="yes"/>
      <point x="537" y="-44"/>
      <point x="518" y="-23"/>
      <point x="399" y="-23" type="curve" smooth="yes"/>
      <point x="281" y="-23"/>
      <point x="262" y="-43"/>
      <point x="262" y="-117" type="curve" smooth="yes"/>
    </contour>
  </outline>
</glyph>
<glyph name="guillemotleft" format="1">
  <advance width="1210"/>
  <unicode hex="00AB"/>
  <outline>
    <contour>
      <point x="313" y="593" type="line"/>
      <point x="542" y="291" type="line" smooth="yes"/>
      <point x="573" y="250"/>
      <point x="588" y="231"/>
      <point x="588" y="210" type="curve" smooth="yes"/>
      <point x="588" y="177"/>
      <point x="572" y="170"/>
      <point x="477" y="170" type="curve" smooth="yes"/>
      <point x="420" y="170"/>
      <point x="377" y="171"/>
      <point x="341" y="216" type="curve" smooth="yes"/>
      <point x="82" y="525" type="line" smooth="yes"/>
      <point x="57" y="556"/>
      <point x="50" y="572"/>
      <point x="50" y="593" type="curve" smooth="yes"/>
      <point x="50" y="614"/>
      <point x="57" y="625"/>
      <point x="77" y="661" type="curve" smooth="yes"/>
      <point x="266" y="1027" type="line" smooth="yes"/>
      <point x="298" y="1089"/>
      <point x="339" y="1089"/>
      <point x="447" y="1089" type="curve" smooth="yes"/>
      <point x="554" y="1089"/>
      <point x="588" y="1079"/>
      <point x="588" y="1046" type="curve" smooth="yes"/>
      <point x="588" y="1025"/>
      <point x="581" y="1011"/>
      <point x="554" y="968" type="curve" smooth="yes"/>
    </contour>
    <contour>
      <point x="855" y="593" type="line"/>
      <point x="1084" y="291" type="line" smooth="yes"/>
      <point x="1115" y="250"/>
      <point x="1130" y="231"/>
      <point x="1130" y="210" type="curve" smooth="yes"/>
      <point x="1130" y="177"/>
      <point x="1114" y="170"/>
      <point x="1019" y="170" type="curve" smooth="yes"/>
      <point x="962" y="170"/>
      <point x="920" y="172"/>
      <point x="883" y="216" type="curve" smooth="yes"/>
      <point x="624" y="525" type="line" smooth="yes"/>
      <point x="599" y="556"/>
      <point x="592" y="572"/>
      <point x="592" y="593" type="curve" smooth="yes"/>
      <point x="592" y="614"/>
      <point x="600" y="624"/>
      <point x="619" y="661" type="curve" smooth="yes"/>
      <point x="808" y="1027" type="line" smooth="yes"/>
      <point x="838" y="1090"/>
      <point x="881" y="1089"/>
      <point x="989" y="1089" type="curve" smooth="yes"/>
      <point x="1096" y="1089"/>
      <point x="1130" y="1079"/>
      <point x="1130" y="1046" type="curve" smooth="yes"/>
      <point x="1130" y="1025"/>
      <point x="1123" y="1011"/>
      <point x="1096" y="968" type="curve" smooth="yes"/>
    </contour>
  </outline>
</glyph>
<glyph name="logicalnot" format="1">
  <advance width="939"/>
  <unicode hex="00AC"/>
  <outline>
    <contour>
      <point x="786" y="660" type="line"/>
      <point x="854" y="660"/>
      <point x="858" y="681"/>
      <point x="858" y="759" type="curve" smooth="yes"/>
      <point x="858" y="845"/>
      <point x="854" y="870"/>
      <point x="786" y="870" type="curve" smooth="yes"/>
      <point x="112" y="870" type="line" smooth="yes"/>
      <point x="44" y="870"/>
      <point x="40" y="846"/>
      <point x="40" y="760" type="curve" smooth="yes"/>
      <point x="40" y="682"/>
      <point x="44" y="660"/>
      <point x="112" y="660" type="curve" smooth="yes"/>
    </contour>
    <contour>
      <point x="668" y="759" type="line"/>
      <point x="672" y="368" type="line" smooth="yes"/>
      <point x="673" y="318"/>
      <point x="696" y="311"/>
      <point x="764" y="311" type="curve" smooth="yes"/>
      <point x="832" y="311"/>
      <point x="855" y="319"/>
      <point x="856" y="369" type="curve" smooth="yes"/>
      <point x="859" y="759" type="line"/>
    </contour>
  </outline>
</glyph>
<glyph name="uni00AD" format="1">
  <advance width="849"/>
  <unicode hex="00AD"/>
  <outline>
    <contour>
      <point x="652" y="480" type="line"/>
      <point x="722" y="480"/>
      <point x="724" y="505"/>
      <point x="724" y="587" type="curve" smooth="yes"/>
      <point x="724" y="677"/>
      <point x="722" y="706"/>
      <point x="652" y="706" type="curve" smooth="yes"/>
      <point x="196" y="706" type="line" smooth="yes"/>
      <point x="126" y="706"/>
      <point x="124" y="678"/>
      <point x="124" y="588" type="curve" smooth="yes"/>
      <point x="124" y="506"/>
      <point x="126" y="480"/>
      <point x="196" y="480" type="curve" smooth="yes"/>
    </contour>
  </outline>
</glyph>
<glyph name="registered" format="1">
  <advance width="1865"/>
  <unicode hex="00AE"/>
  <outline>
    <contour>
      <point x="725" y="791" type="line"/>
      <point x="1025" y="791" type="line" smooth="yes"/>
      <point x="1219" y="791"/>
      <point x="1278" y="887"/>
      <point x="1282" y="1002" type="curve" smooth="yes"/>
      <point x="1288" y="1171" type="line" smooth="yes"/>
      <point x="1295" y="1367"/>
      <point x="1189" y="1438"/>
      <point x="1012" y="1438" type="curve" smooth="yes"/>
      <point x="730" y="1438" type="line"/>
      <point x="730" y="1301" type="line"/>
      <point x="925" y="1301" type="line" smooth="yes"/>
      <point x="1000" y="1301"/>
      <point x="1015" y="1282"/>
      <point x="1018" y="1222" type="curve" smooth="yes"/>
      <point x="1030" y="997" type="line" smooth="yes"/>
      <point x="1033" y="932"/>
      <point x="1010" y="903"/>
      <point x="936" y="903" type="curve" smooth="yes"/>
      <point x="725" y="903" type="line"/>
    </contour>
    <contour>
      <point x="1115" y="854" type="line"/>
      <point x="874" y="854" type="line"/>
      <point x="1074" y="498" type="line" smooth="yes"/>
      <point x="1097" y="460"/>
      <point x="1116" y="451"/>
      <point x="1183" y="451" type="curve" smooth="yes"/>
      <point x="1266" y="451"/>
      <point x="1282" y="466"/>
      <point x="1282" y="485" type="curve" smooth="yes"/>
      <point x="1282" y="497"/>
      <point x="1276" y="515"/>
      <point x="1263" y="542" type="curve" smooth="yes"/>
    </contour>
    <contour>
      <point x="867" y="1368" type="line"/>
      <point x="868" y="1425"/>
      <point x="849" y="1438"/>
      <point x="730" y="1438" type="curve" smooth="yes"/>
      <point x="612" y="1438"/>
      <point x="592" y="1424"/>
      <point x="593" y="1367" type="curve" smooth="yes"/>
      <point x="615" y="508" type="line" smooth="yes"/>
      <point x="616" y="458"/>
      <point x="639" y="450"/>
      <point x="731" y="450" type="curve" smooth="yes"/>
      <point x="823" y="450"/>
      <point x="844" y="458"/>
      <point x="845" y="508" type="curve" smooth="yes"/>
    </contour>
    <contour>
      <point x="932" y="1897" type="curve" smooth="yes"/>
      <point x="517" y="1897"/>
      <point x="146" y="1709"/>
      <point x="151" y="1299" type="curve" smooth="yes"/>
      <point x="159" y="643" type="line" smooth="yes"/>
      <point x="164" y="224"/>
      <point x="501" y="71"/>
      <point x="932" y="71" type="curve" smooth="yes"/>
      <point x="1364" y="71"/>
      <point x="1701" y="224"/>
      <point x="1706" y="643" type="curve" smooth="yes"/>
      <point x="1714" y="1299" type="line" smooth="yes"/>
      <point x="1719" y="1709"/>
      <point x="1348" y="1897"/>
    </contour>
    <contour>
      <point x="932" y="221" type="curve" smooth="yes"/>
      <point x="640" y="221"/>
      <point x="363" y="324"/>
      <point x="367" y="643" type="curve" smooth="yes"/>
      <point x="375" y="1275" type="line" smooth="yes"/>
      <point x="379" y="1594"/>
      <point x="625" y="1697"/>
      <point x="932" y="1697" type="curve" smooth="yes"/>
      <point x="1240" y="1697"/>
      <point x="1486" y="1594"/>
      <point x="1490" y="1275" type="curve" smooth="yes"/>
      <point x="1498" y="643" type="line" smooth="yes"/>
      <point x="1502" y="324"/>
      <point x="1225" y="221"/>
    </contour>
  </outline>
</glyph>
<glyph name="twosuperior" format="1">
  <advance width="884"/>
  <unicode hex="00B2"/>
  <outline>
    <contour>
      <point x="754" y="851" type="line"/>
      <point x="795" y="851"/>
      <point x="798" y="817"/>
      <point x="798" y="766" type="curve" smooth="yes"/>
      <point x="798" y="708"/>
      <point x="796" y="680"/>
      <point x="754" y="680" type="curve" smooth="yes"/>
      <point x="177" y="680" type="line" smooth="yes"/>
      <point x="142" y="680"/>
      <point x="133" y="687"/>
      <point x="133" y="720" type="curve" smooth="yes"/>
      <point x="133" y="738" type="line" smooth="yes"/>
      <point x="133" y="766"/>
      <point x="140" y="781"/>
      <point x="152" y="797" type="curve"/>
      <point x="479" y="1168" type="line"/>
      <point x="513" y="1212"/>
      <point x="528" y="1234"/>
      <point x="525" y="1296" type="curve"/>
      <point x="519" y="1469" type="line" smooth="yes"/>
      <point x="517" y="1538"/>
      <point x="490" y="1547"/>
      <point x="449" y="1547" type="curve" smooth="yes"/>
      <point x="400" y="1547"/>
      <point x="372" y="1538"/>
      <point x="370" y="1468" type="curve" smooth="yes"/>
      <point x="363" y="1259" type="line" smooth="yes"/>
      <point x="361" y="1210"/>
      <point x="334" y="1204"/>
      <point x="243" y="1204" type="curve" smooth="yes"/>
      <point x="145" y="1204"/>
      <point x="119" y="1211"/>
      <point x="116" y="1259" type="curve" smooth="yes"/>
      <point x="101" y="1509" type="line" smooth="yes"/>
      <point x="94" y="1628"/>
      <point x="229" y="1701"/>
      <point x="449" y="1701" type="curve" smooth="yes"/>
      <point x="670" y="1701"/>
      <point x="808" y="1629"/>
      <point x="803" y="1509" type="curve" smooth="yes"/>
      <point x="791" y="1253" type="line" smooth="yes"/>
      <point x="789" y="1198"/>
      <point x="770" y="1161"/>
      <point x="724" y="1112" type="curve"/>
      <point x="460" y="856" type="line"/>
      <point x="460" y="851" type="line"/>
    </contour>
  </outline>
</glyph>
<glyph name="acute" format="1">
  <advance width="0"/>
  <unicode hex="00B4"/>
  <outline>
    <contour>
      <point x="-78" y="1522" type="line"/>
      <point x="-105" y="1472"/>
      <point x="-127" y="1444"/>
      <point x="-127" y="1419" type="curve" smooth="yes"/>
      <point x="-127" y="1393"/>
      <point x="-99" y="1382"/>
      <point x="-31" y="1382" type="curve" smooth="yes"/>
      <point x="65" y="1382"/>
      <point x="71" y="1393"/>
      <point x="108" y="1441" type="curve" smooth="yes"/>
      <point x="280" y="1667" type="line" smooth="yes"/>
      <point x="304" y="1698"/>
      <point x="322" y="1724"/>
      <point x="322" y="1745" type="curve" smooth="yes"/>
      <point x="322" y="1772"/>
      <point x="298" y="1784"/>
      <point x="188" y="1784" type="curve" smooth="yes"/>
      <point x="77" y="1784"/>
      <point x="57" y="1775"/>
      <point x="29" y="1722" type="curve" smooth="yes"/>
    </contour>
    <contour>
      <point x="0" y="1700" type="move" name="_top"/>
    </contour>
  </outline>
</glyph>
<glyph name="paragraph" format="1">
  <advance width="1277"/>
  <unicode hex="00B6"/>
  <outline>
    <contour>
      <point x="572" y="1722" type="curve" smooth="yes"/>
      <point x="352" y="1722"/>
      <point x="77" y="1647"/>
      <point x="86" y="1422" type="curve"/>
      <point x="106" y="1003" type="line" smooth="yes"/>
      <point x="110" y="891"/>
      <point x="168" y="742"/>
      <point x="444" y="707" type="curve"/>
      <point x="428" y="1009" type="line"/>
      <point x="454" y="57" type="line" smooth="yes"/>
      <point x="455" y="7"/>
      <point x="474" y="0"/>
      <point x="557" y="0" type="curve" smooth="yes"/>
      <point x="638" y="0"/>
      <point x="658" y="8"/>
      <point x="659" y="58" type="curve" smooth="yes"/>
      <point x="697" y="1652" type="line" smooth="yes"/>
      <point x="698" y="1709"/>
      <point x="672" y="1722"/>
    </contour>
    <contour>
      <point x="1009" y="0" type="curve" smooth="yes"/>
      <point x="1091" y="0"/>
      <point x="1110" y="8"/>
      <point x="1112" y="58" type="curve" smooth="yes"/>
      <point x="1150" y="1652" type="line" smooth="yes"/>
      <point x="1151" y="1709"/>
      <point x="1130" y="1724"/>
      <point x="1008" y="1724" type="curve" smooth="yes"/>
      <point x="887" y="1724"/>
      <point x="865" y="1708"/>
      <point x="866" y="1651" type="curve" smooth="yes"/>
      <point x="907" y="57" type="line" smooth="yes"/>
      <point x="908" y="7"/>
      <point x="927" y="0"/>
    </contour>
  </outline>
</glyph>
<glyph name="threequarters" format="1">
  <advance width="1948"/>
  <unicode hex="00BE"/>
  <outline>
    <contour>
      <point x="1588" y="1033" type="curve" smooth="yes"/>
      <point x="1470" y="1033"/>
      <point x="1433" y="1026"/>
      <point x="1415" y="976" type="curve" smooth="yes"/>
      <point x="1185" y="345" type="line" smooth="yes"/>
      <point x="1176" y="321"/>
      <point x="1167" y="299"/>
      <point x="1167" y="275" type="curve" smooth="yes"/>
      <point x="1167" y="255" type="line" smooth="yes"/>
      <point x="1167" y="229"/>
      <point x="1211" y="218"/>
      <point x="1235" y="218" type="curve" smooth="yes"/>
      <point x="1342" y="218"/>
      <point x="1354" y="231"/>
      <point x="1370" y="276" type="curve"/>
      <point x="1703" y="971" type="line" smooth="yes"/>
      <point x="1718" y="1014"/>
      <point x="1687" y="1033"/>
    </contour>
    <contour>
      <point x="1770" y="218" type="line"/>
      <point x="1770" y="389" type="line"/>
      <point x="1276" y="389" type="line"/>
      <point x="1235" y="218" type="line"/>
    </contour>
    <contour>
      <point x="1748" y="599" type="curve" smooth="yes"/>
      <point x="1655" y="599"/>
      <point x="1617" y="590"/>
      <point x="1618" y="549" type="curve" smooth="yes"/>
      <point x="1632" y="40" type="line" smooth="yes"/>
      <point x="1633" y="3"/>
      <point x="1652" y="-1"/>
      <point x="1736" y="-1" type="curve" smooth="yes"/>
      <point x="1817" y="-1"/>
      <point x="1851" y="3"/>
      <point x="1852" y="40" type="curve"/>
      <point x="1867" y="550" type="line" smooth="yes"/>
      <point x="1868" y="592"/>
      <point x="1859" y="599"/>
    </contour>
    <contour>
      <point x="460" y="1048" type="line" smooth="yes"/>
      <point x="503" y="1048"/>
      <point x="524" y="1039"/>
      <point x="526" y="991" type="curve" smooth="yes"/>
      <point x="529" y="907" type="line"/>
      <point x="534" y="829"/>
      <point x="501" y="819"/>
      <point x="463" y="819" type="curve" smooth="yes"/>
      <point x="396" y="819"/>
      <point x="375" y="827"/>
      <point x="377" y="879" type="curve" smooth="yes"/>
      <point x="378" y="925" type="line" smooth="yes"/>
      <point x="380" y="973"/>
      <point x="346" y="980"/>
      <point x="245" y="980" type="curve" smooth="yes"/>
      <point x="128" y="980"/>
      <point x="105" y="973"/>
      <point x="106" y="924" type="curve" smooth="yes"/>
      <point x="108" y="829" type="line" smooth="yes"/>
      <point x="110" y="743"/>
      <point x="191" y="672"/>
      <point x="440" y="672" type="curve" smooth="yes"/>
      <point x="698" y="672"/>
      <point x="780" y="752"/>
      <point x="782" y="846" type="curve"/>
      <point x="786" y="968" type="line" smooth="yes"/>
      <point x="789" y="1053"/>
      <point x="744" y="1083"/>
      <point x="626" y="1128" type="curve"/>
      <point x="626" y="1133" type="line"/>
      <point x="768" y="1178"/>
      <point x="782" y="1235"/>
      <point x="784" y="1301" type="curve" smooth="yes"/>
      <point x="792" y="1523" type="line"/>
      <point x="795" y="1656"/>
      <point x="591" y="1700"/>
      <point x="440" y="1700" type="curve" smooth="yes"/>
      <point x="293" y="1700"/>
      <point x="88" y="1656"/>
      <point x="91" y="1523" type="curve"/>
      <point x="104" y="1323" type="line"/>
      <point x="105" y="1274"/>
      <point x="136" y="1268"/>
      <point x="235" y="1268" type="curve" smooth="yes"/>
      <point x="326" y="1268"/>
      <point x="353" y="1274"/>
      <point x="354" y="1323" type="curve"/>
      <point x="362" y="1468" type="line"/>
      <point x="364" y="1531"/>
      <point x="381" y="1548"/>
      <point x="440" y="1548" type="curve" smooth="yes"/>
      <point x="492" y="1548"/>
      <point x="504" y="1530"/>
      <point x="509" y="1468" type="curve"/>
      <point x="517" y="1277" type="line" smooth="yes"/>
      <point x="519" y="1224"/>
      <point x="498" y="1207"/>
      <point x="461" y="1207" type="curve" smooth="yes"/>
      <point x="423" y="1207" type="line" smooth="yes"/>
      <point x="380" y="1207"/>
      <point x="379" y="1186"/>
      <point x="379" y="1129" type="curve" smooth="yes"/>
      <point x="379" y="1065"/>
      <point x="380" y="1048"/>
      <point x="422" y="1048" type="curve" smooth="yes"/>
    </contour>
    <component base="fraction" xOffset="799"/>
  </outline>
</glyph>
<glyph name="Aring" format="1">
  <advance width="1061"/>
  <unicode hex="00C5"/>
  <outline>
    <contour>
      <point x="217" y="1844" type="line"/>
      <point x="217" y="1705"/>
      <point x="355" y="1643"/>
      <point x="531" y="1643" type="curve" smooth="yes"/>
      <point x="707" y="1643"/>
      <point x="845" y="1705"/>
      <point x="845" y="1844" type="curve" smooth="yes"/>
      <point x="845" y="1917" type="line" smooth="yes"/>
      <point x="845" y="2056"/>
      <point x="707" y="2118"/>
      <point x="531" y="2118" type="curve" smooth="yes"/>
      <point x="355" y="2118"/>
      <point x="217" y="2056"/>
      <point x="217" y="1917" type="curve" smooth="yes"/>
    </contour>
    <contour>
      <point x="320" y="1719" type="line"/>
      <point x="14" y="78" type="line" smooth="yes"/>
      <point x="1" y="7"/>
      <point x="39" y="0"/>
      <point x="143" y="0" type="curve" smooth="yes"/>
      <point x="270" y="0"/>
      <point x="287" y="7"/>
      <point x="299" y="78" type="curve" smooth="yes"/>
      <point x="526" y="1426" type="line"/>
      <point x="535" y="1426" type="line"/>
      <point x="762" y="78" type="line" smooth="yes"/>
      <point x="774" y="7"/>
      <point x="791" y="0"/>
      <point x="918" y="0" type="curve" smooth="yes"/>
      <point x="1023" y="0"/>
      <point x="1060" y="7"/>
      <point x="1047" y="78" type="curve" smooth="yes"/>
      <point x="741" y="1719" type="line"/>
    </contour>
    <contour>
      <point x="258" y="317" type="line"/>
      <point x="792" y="317" type="line"/>
      <point x="792" y="507" type="line"/>
      <point x="258" y="507" type="line"/>
    </contour>
    <contour>
      <point x="631" y="1829" type="line"/>
      <point x="631" y="1778"/>
      <point x="599" y="1747"/>
      <point x="531" y="1747" type="curve" smooth="yes"/>
      <point x="463" y="1747"/>
      <point x="431" y="1778"/>
      <point x="431" y="1829" type="curve" smooth="yes"/>
      <point x="431" y="1900" type="line" smooth="yes"/>
      <point x="431" y="1951"/>
      <point x="463" y="1982"/>
      <point x="531" y="1982" type="curve" smooth="yes"/>
      <point x="599" y="1982"/>
      <point x="631" y="1951"/>
      <point x="631" y="1900" type="curve" smooth="yes"/>
    </contour>
  </outline>
</glyph>
<glyph name="multiply" format="1">
  <advance width="1013"/>
  <unicode hex="00D7"/>
  <outline>
    <contour>
      <point x="919" y="1080" type="line"/>
      <point x="952" y="1119"/>
      <point x="973" y="1137"/>
      <point x="973" y="1158" type="curve" smooth="yes"/>
      <point x="973" y="1191"/>
      <point x="941" y="1201"/>
      <point x="830" y="1201" type="curve" smooth="yes"/>
      <point x="726" y="1201"/>
      <point x="710" y="1197"/>
      <point x="672" y="1139" type="curve" smooth="yes"/>
      <point x="447" y="821" type="line"/>
      <point x="437" y="701" type="line"/>
      <point x="699" y="386" type="line" smooth="yes"/>
      <point x="738" y="336"/>
      <point x="772" y="340"/>
      <point x="825" y="340" type="curve" smooth="yes"/>
      <point x="904" y="340"/>
      <point x="929" y="347"/>
      <point x="929" y="380" type="curve" smooth="yes"/>
      <point x="929" y="401"/>
      <point x="913" y="424"/>
      <point x="884" y="461" type="curve" smooth="yes"/>
      <point x="650" y="762" type="line"/>
    </contour>
    <contour>
      <point x="363" y="762" type="line"/>
      <point x="131" y="461" type="line" smooth="yes"/>
      <point x="102" y="424"/>
      <point x="84" y="401"/>
      <point x="84" y="380" type="curve" smooth="yes"/>
      <point x="84" y="347"/>
      <point x="109" y="340"/>
      <point x="188" y="340" type="curve" smooth="yes"/>
      <point x="241" y="340"/>
      <point x="275" y="336"/>
      <point x="314" y="386" type="curve" smooth="yes"/>
      <point x="576" y="701" type="line"/>
      <point x="566" y="821" type="line"/>
      <point x="341" y="1139" type="line" smooth="yes"/>
      <point x="303" y="1197"/>
      <point x="287" y="1201"/>
      <point x="183" y="1201" type="curve" smooth="yes"/>
      <point x="72" y="1201"/>
      <point x="40" y="1191"/>
      <point x="40" y="1158" type="curve" smooth="yes"/>
      <point x="40" y="1137"/>
      <point x="60" y="1118"/>
      <point x="94" y="1080" type="curve" smooth="yes"/>
    </contour>
  </outline>
</glyph>
<glyph name="ae" format="1">
  <advance width="1606"/>
  <unicode hex="00E6"/>
  <outline>
    <contour>
      <point x="962" y="925" type="line"/>
      <point x="962" y="1100"/>
      <point x="782" y="1214"/>
      <point x="522" y="1214" type="curve" smooth="yes"/>
      <point x="378" y="1214"/>
      <point x="117" y="1150"/>
      <point x="124" y="958" type="curve" smooth="yes"/>
      <point x="132" y="724" type="line" smooth="yes"/>
      <point x="134" y="674"/>
      <point x="153" y="667"/>
      <point x="274" y="667" type="curve" smooth="yes"/>
      <point x="404" y="667"/>
      <point x="424" y="674"/>
      <point x="425" y="724" type="curve" smooth="yes"/>
      <point x="432" y="951" type="line" smooth="yes"/>
      <point x="435" y="1040"/>
      <point x="482" y="1058"/>
      <point x="550" y="1058" type="curve" smooth="yes"/>
      <point x="623" y="1058"/>
      <point x="654" y="1023"/>
      <point x="657" y="950" type="curve"/>
      <point x="756" y="906" type="line"/>
    </contour>
    <contour>
      <point x="929" y="484" type="line"/>
      <point x="1267" y="484" type="line"/>
      <point x="1267" y="634" type="line"/>
      <point x="929" y="634" type="line"/>
    </contour>
    <contour>
      <point x="1216" y="247" type="line"/>
      <point x="1216" y="152"/>
      <point x="1178" y="132"/>
      <point x="1092" y="132" type="curve" smooth="yes"/>
      <point x="1001" y="132"/>
      <point x="948" y="166"/>
      <point x="950" y="250" type="curve" smooth="yes"/>
      <point x="969" y="927" type="line" smooth="yes"/>
      <point x="972" y="1040"/>
      <point x="1024" y="1058"/>
      <point x="1090" y="1058" type="curve" smooth="yes"/>
      <point x="1150" y="1058"/>
      <point x="1195" y="1040"/>
      <point x="1198" y="927" type="curve" smooth="yes"/>
      <point x="1213" y="484" type="line"/>
      <point x="1348" y="484" type="line" smooth="yes"/>
      <point x="1468" y="484"/>
      <point x="1488" y="491"/>
      <point x="1490" y="541" type="curve" smooth="yes"/>
      <point x="1505" y="910" type="line" smooth="yes"/>
      <point x="1513" y="1123"/>
      <point x="1292" y="1214"/>
      <point x="1131" y="1214" type="curve" smooth="yes"/>
      <point x="928" y="1214"/>
      <point x="806" y="1135"/>
      <point x="737" y="1023" type="curve"/>
      <point x="652" y="1066" type="line"/>
      <point x="679" y="215" type="line"/>
      <point x="718" y="151" type="line"/>
      <point x="813" y="34"/>
      <point x="958" y="-12"/>
      <point x="1083" y="-12" type="curve" smooth="yes"/>
      <point x="1283" y="-12"/>
      <point x="1480" y="37"/>
      <point x="1480" y="247" type="curve" smooth="yes"/>
      <point x="1480" y="291" type="line" smooth="yes"/>
      <point x="1480" y="341"/>
      <point x="1462" y="355"/>
      <point x="1344" y="355" type="curve" smooth="yes"/>
      <point x="1234" y="355"/>
      <point x="1216" y="340"/>
      <point x="1216" y="290" type="curve" smooth="yes"/>
    </contour>
    <contour>
      <point x="713" y="627" type="line"/>
      <point x="611" y="613"/>
      <point x="489" y="590"/>
      <point x="386" y="557" type="curve"/>
      <point x="256" y="512"/>
      <point x="107" y="440"/>
      <point x="109" y="291" type="curve" smooth="yes"/>
      <point x="110" y="237" type="line" smooth="yes"/>
      <point x="112" y="98"/>
      <point x="215" y="-12"/>
      <point x="421" y="-12" type="curve" smooth="yes"/>
      <point x="616" y="-12"/>
      <point x="768" y="142"/>
      <point x="803" y="197" type="curve"/>
      <point x="736" y="279" type="line"/>
      <point x="704" y="246"/>
      <point x="635" y="154"/>
      <point x="496" y="154" type="curve" smooth="yes"/>
      <point x="433" y="154"/>
      <point x="383" y="186"/>
      <point x="383" y="267" type="curve" smooth="yes"/>
      <point x="383" y="306" type="line" smooth="yes"/>
      <point x="383" y="364"/>
      <point x="427" y="398"/>
      <point x="493" y="428" type="curve" smooth="yes"/>
      <point x="543" y="450"/>
      <point x="608" y="467"/>
      <point x="699" y="481" type="curve"/>
    </contour>
    <contour>
      <point x="807" y="-170" type="move" name="btm"/>
    </contour>
    <contour>
      <point x="807" y="1700" type="move" name="top"/>
    </contour>
  </outline>
</glyph>
<glyph name="idieresis" format="1">
  <advance width="566"/>
  <unicode hex="00EF"/>
  <outline>
    <contour>
      <point x="283" y="0" type="curve" smooth="yes"/>
      <point x="395" y="0"/>
      <point x="413" y="7"/>
      <point x="414" y="57" type="curve" smooth="yes"/>
      <point x="445" y="1129" type="line" smooth="yes"/>
      <point x="446" y="1186"/>
      <point x="428" y="1202"/>
      <point x="283" y="1202" type="curve" smooth="yes"/>
      <point x="138" y="1202"/>
      <point x="120" y="1186"/>
      <point x="121" y="1129" type="curve" smooth="yes"/>
      <point x="153" y="57" type="line" smooth="yes"/>
      <point x="154" y="7"/>
      <point x="171" y="0"/>
    </contour>
    <contour>
      <point x="84" y="1407" type="curve" smooth="yes"/>
      <point x="196" y="1407"/>
      <point x="212" y="1414"/>
      <point x="215" y="1464" type="curve" smooth="yes"/>
      <point x="226" y="1635" type="line" smooth="yes"/>
      <point x="229" y="1692"/>
      <point x="211" y="1708"/>
      <point x="84" y="1708" type="curve" smooth="yes"/>
      <point x="-43" y="1708"/>
      <point x="-62" y="1692"/>
      <point x="-58" y="1635" type="curve" smooth="yes"/>
      <point x="-46" y="1464" type="line" smooth="yes"/>
      <point x="-43" y="1414"/>
      <point x="-28" y="1407"/>
    </contour>
    <contour>
      <point x="482" y="1407" type="curve" smooth="yes"/>
      <point x="594" y="1407"/>
      <point x="610" y="1414"/>
      <point x="613" y="1464" type="curve" smooth="yes"/>
      <point x="624" y="1635" type="line" smooth="yes"/>
      <point x="627" y="1692"/>
      <point x="609" y="1708"/>
      <point x="482" y="1708" type="curve" smooth="yes"/>
      <point x="355" y="1708"/>
      <point x="336" y="1692"/>
      <point x="340" y="1635" type="curve" smooth="yes"/>
      <point x="352" y="1464" type="line" smooth="yes"/>
      <point x="355" y="1414"/>
      <point x="370" y="1407"/>
    </contour>
  </outline>
</glyph>
<glyph name="divide" format="1">
  <advance width="976"/>
  <unicode hex="00F7"/>
  <outline>
    <contour>
      <point x="864" y="664" type="line"/>
      <point x="932" y="664"/>
      <point x="936" y="685"/>
      <point x="936" y="763" type="curve" smooth="yes"/>
      <point x="936" y="849"/>
      <point x="932" y="866"/>
      <point x="864" y="866" type="curve" smooth="yes"/>
      <point x="489" y="866" type="line"/>
      <point x="112" y="866" type="line" smooth="yes"/>
      <point x="44" y="866"/>
      <point x="40" y="850"/>
      <point x="40" y="764" type="curve" smooth="yes"/>
      <point x="40" y="686"/>
      <point x="44" y="664"/>
      <point x="112" y="664" type="curve" smooth="yes"/>
    </contour>
    <contour>
      <point x="489" y="526" type="curve" smooth="yes"/>
      <point x="616" y="526"/>
      <point x="630" y="510"/>
      <point x="627" y="453" type="curve" smooth="yes"/>
      <point x="622" y="297" type="line" smooth="yes"/>
      <point x="619" y="247"/>
      <point x="602" y="237"/>
      <point x="489" y="237" type="curve" smooth="yes"/>
      <point x="375" y="237"/>
      <point x="359" y="247"/>
      <point x="357" y="297" type="curve" smooth="yes"/>
      <point x="351" y="453" type="line" smooth="yes"/>
      <point x="349" y="510"/>
      <point x="361" y="526"/>
    </contour>
    <contour>
      <point x="489" y="1002" type="curve" smooth="yes"/>
      <point x="602" y="1002"/>
      <point x="631" y="1013"/>
      <point x="633" y="1063" type="curve" smooth="yes"/>
      <point x="644" y="1246" type="line" smooth="yes"/>
      <point x="646" y="1303"/>
      <point x="621" y="1323"/>
      <point x="489" y="1323" type="curve" smooth="yes"/>
      <point x="357" y="1323"/>
      <point x="331" y="1303"/>
      <point x="333" y="1246" type="curve" smooth="yes"/>
      <point x="342" y="1063" type="line" smooth="yes"/>
      <point x="343" y="1013"/>
      <point x="368" y="1002"/>
    </contour>
  </outline>
</glyph>
<glyph name="oslash" format="1">
  <advance width="1081"/>
  <unicode hex="00F8"/>
  <outline>
    <contour>
      <point x="800" y="1028" type="line"/>
      <point x="957" y="1424" type="line" smooth="yes"/>
      <point x="977" y="1475"/>
      <point x="951" y="1493"/>
      <point x="837" y="1494" type="curve" smooth="yes"/>
      <point x="722" y="1495"/>
      <point x="713" y="1475"/>
      <point x="695" y="1423" type="curve" smooth="yes"/>
      <point x="597" y="1122" type="line"/>
    </contour>
    <contour>
      <point x="344" y="136" type="line"/>
      <point x="229" y="-208" type="line" smooth="yes"/>
      <point x="214" y="-255"/>
      <point x="227" y="-265"/>
      <point x="315" y="-266" type="curve" smooth="yes"/>
      <point x="386" y="-267"/>
      <point x="411" y="-262"/>
      <point x="430" y="-217" type="curve" smooth="yes"/>
      <point x="552" y="71" type="line"/>
    </contour>
    <component base="o"/>
  </outline>
</glyph>
<glyph name="thorn" format="1">
  <advance width="1087"/>
  <unicode hex="00FE"/>
  <outline>
    <contour>
      <point x="283" y="-419" type="curve" smooth="yes"/>
      <point x="395" y="-419"/>
      <point x="412" y="-412"/>
      <point x="413" y="-362" type="curve" smooth="yes"/>
      <point x="444" y="1652" type="line" smooth="yes"/>
      <point x="445" y="1709"/>
      <point x="428" y="1724"/>
      <point x="282" y="1724" type="curve" smooth="yes"/>
      <point x="137" y="1724"/>
      <point x="119" y="1708"/>
      <point x="120" y="1651" type="curve" smooth="yes"/>
      <point x="153" y="-363" type="line" smooth="yes"/>
      <point x="154" y="-413"/>
      <point x="170" y="-419"/>
    </contour>
    <contour>
      <point x="412" y="939" type="line"/>
      <point x="441" y="971"/>
      <point x="499" y="1007"/>
      <point x="554" y="1007" type="curve" smooth="yes"/>
      <point x="613" y="1007"/>
      <point x="665" y="975"/>
      <point x="667" y="883" type="curve" smooth="yes"/>
      <point x="682" y="320" type="line" smooth="yes"/>
      <point x="685" y="222"/>
      <point x="632" y="167"/>
      <point x="547" y="167" type="curve" smooth="yes"/>
      <point x="474" y="167"/>
      <point x="417" y="209"/>
      <point x="392" y="243" type="curve"/>
      <point x="386" y="110" type="line"/>
      <point x="441" y="56"/>
      <point x="535" y="-12"/>
      <point x="672" y="-12" type="curve" smooth="yes"/>
      <point x="844" y="-12"/>
      <point x="950" y="79"/>
      <point x="958" y="320" type="curve" smooth="yes"/>
      <point x="976" y="883" type="line" smooth="yes"/>
      <point x="982" y="1076"/>
      <point x="857" y="1214"/>
      <point x="671" y="1214" type="curve" smooth="yes"/>
      <point x="543" y="1214"/>
      <point x="450" y="1127"/>
      <point x="380" y="1047" type="curve"/>
    </contour>
  </outline>
</glyph>
<glyph name="Dcroat" format="1">
  <advance width="1222"/>
  <unicode hex="0110"/>
  <outline>
    <contour>
      <point x="280" y="0" type="line"/>
      <point x="602" y="0" type="line" smooth="yes"/>
      <point x="922" y="0"/>
      <point x="1063" y="124"/>
      <point x="1069" y="324" type="curve" smooth="yes"/>
      <point x="1098" y="1334" type="line" smooth="yes"/>
      <point x="1105" y="1566"/>
      <point x="957" y="1690"/>
      <point x="599" y="1690" type="curve" smooth="yes"/>
      <point x="304" y="1690" type="line"/>
      <point x="304" y="1517" type="line"/>
      <point x="617" y="1517" type="line" smooth="yes"/>
      <point x="702" y="1517"/>
      <point x="744" y="1498"/>
      <point x="747" y="1382" type="curve" smooth="yes"/>
      <point x="776" y="311" type="line" smooth="yes"/>
      <point x="779" y="199"/>
      <point x="738" y="163"/>
      <point x="612" y="163" type="curve" smooth="yes"/>
      <point x="297" y="163" type="line"/>
    </contour>
    <contour>
      <point x="307" y="0" type="curve" smooth="yes"/>
      <point x="430" y="0"/>
      <point x="444" y="7"/>
      <point x="445" y="68" type="curve" smooth="yes"/>
      <point x="489" y="1607" type="line" smooth="yes"/>
      <point x="491" y="1676"/>
      <point x="465" y="1690"/>
      <point x="307" y="1690" type="curve" smooth="yes"/>
      <point x="148" y="1690"/>
      <point x="123" y="1676"/>
      <point x="125" y="1607" type="curve" smooth="yes"/>
      <point x="168" y="68" type="line" smooth="yes"/>
      <point x="170" y="7"/>
      <point x="184" y="0"/>
    </contour>
    <contour>
      <point x="578" y="781" type="line"/>
      <point x="648" y="781"/>
      <point x="650" y="797"/>
      <point x="650" y="871" type="curve" smooth="yes"/>
      <point x="650" y="945"/>
      <point x="648" y="961"/>
      <point x="578" y="961" type="curve" smooth="yes"/>
      <point x="89" y="961" type="line" smooth="yes"/>
      <point x="19" y="961"/>
      <point x="17" y="945"/>
      <point x="17" y="871" type="curve" smooth="yes"/>
      <point x="17" y="797"/>
      <point x="19" y="781"/>
      <point x="89" y="781" type="curve" smooth="yes"/>
    </contour>
  </outline>
</glyph>
<glyph name="dotlessi" format="1">
  <advance width="566"/>
  <unicode hex="0131"/>
  <outline>
    <contour>
      <point x="283" y="0" type="curve" smooth="yes"/>
      <point x="395" y="0"/>
      <point x="413" y="7"/>
      <point x="414" y="57" type="curve" smooth="yes"/>
      <point x="445" y="1129" type="line" smooth="yes"/>
      <point x="446" y="1186"/>
      <point x="428" y="1202"/>
      <point x="283" y="1202" type="curve" smooth="yes"/>
      <point x="138" y="1202"/>
      <point x="120" y="1186"/>
      <point x="121" y="1129" type="curve" smooth="yes"/>
      <point x="153" y="57" type="line" smooth="yes"/>
      <point x="154" y="7"/>
      <point x="171" y="0"/>
    </contour>
    <contour>
      <point x="283" y="-170" type="move" name="btm"/>
    </contour>
    <contour>
      <point x="283" y="1700" type="move" name="top"/>
    </contour>
  </outline>
</glyph>
<glyph name="IJ" format="1">
  <advance width="1232"/>
  <unicode hex="0132"/>
  <outline>
    <contour>
      <point x="307" y="645" type="curve" smooth="yes"/>
      <point x="430" y="645"/>
      <point x="459" y="652"/>
      <point x="461" y="713" type="curve" smooth="yes"/>
      <point x="488" y="1607" type="line" smooth="yes"/>
      <point x="490" y="1676"/>
      <point x="465" y="1690"/>
      <point x="307" y="1690" type="curve" smooth="yes"/>
      <point x="148" y="1690"/>
      <point x="123" y="1676"/>
      <point x="125" y="1607" type="curve" smooth="yes"/>
      <point x="152" y="713" type="line" smooth="yes"/>
      <point x="154" y="652"/>
      <point x="184" y="645"/>
    </contour>
    <contour>
      <point x="779" y="296" type="line"/>
      <point x="782" y="184"/>
      <point x="742" y="151"/>
      <point x="617" y="151" type="curve" smooth="yes"/>
      <point x="502" y="151"/>
      <point x="446" y="179"/>
      <point x="451" y="280" type="curve" smooth="yes"/>
      <point x="454" y="381" type="line" smooth="yes"/>
      <point x="458" y="462"/>
      <point x="440" y="473"/>
      <point x="301" y="473" type="curve" smooth="yes"/>
      <point x="177" y="473"/>
      <point x="153" y="461"/>
      <point x="156" y="381" type="curve" smooth="yes"/>
      <point x="159" y="292" type="line" smooth="yes"/>
      <point x="165" y="126"/>
      <point x="314" y="-12"/>
      <point x="617" y="-12" type="curve" smooth="yes"/>
      <point x="941" y="-12"/>
      <point x="1066" y="131"/>
      <point x="1071" y="305" type="curve" smooth="yes"/>
      <point x="1107" y="1607" type="line" smooth="yes"/>
      <point x="1109" y="1676"/>
      <point x="1083" y="1690"/>
      <point x="925" y="1690" type="curve" smooth="yes"/>
      <point x="766" y="1690"/>
      <point x="741" y="1682"/>
      <point x="743" y="1607" type="curve" smooth="yes"/>
    </contour>
  </outline>
</glyph>
<glyph name="kgreenlandic" format="1">
  <advance width="1005"/>
  <unicode hex="0138"/>
  <outline>
    <contour>
      <point x="835" y="0" type="curve" smooth="yes"/>
      <point x="939" y="0"/>
      <point x="956" y="8"/>
      <point x="956" y="32" type="curve" smooth="yes"/>
      <point x="956" y="47"/>
      <point x="946" y="68"/>
      <point x="929" y="101" type="curve" smooth="yes"/>
      <point x="745" y="460" type="line"/>
      <point x="951" y="1094" type="line" smooth="yes"/>
      <point x="959" y="1119"/>
      <point x="965" y="1138"/>
      <point x="965" y="1153" type="curve" smooth="yes"/>
      <point x="965" y="1197"/>
      <point x="949" y="1202"/>
      <point x="825" y="1202" type="curve" smooth="yes"/>
      <point x="696" y="1202"/>
      <point x="673" y="1191"/>
      <point x="659" y="1137" type="curve" smooth="yes"/>
      <point x="481" y="460" type="line"/>
      <point x="695" y="57" type="line" smooth="yes"/>
      <point x="720" y="10"/>
      <point x="731" y="0"/>
    </contour>
    <contour>
      <point x="542" y="-170" type="move" name="btm"/>
    </contour>
    <contour>
      <point x="542" y="1700" type="move" name="top"/>
    </contour>
    <component base="dotlessi"/>
  </outline>
</glyph>
<glyph name="Lcaron" format="1">
  <advance width="820"/>
  <unicode hex="013D"/>
  <outline>
    <contour>
      <point x="705" y="1016" type="curve" smooth="yes"/>
      <point x="797" y="1016"/>
      <point x="809" y="1023"/>
      <point x="823" y="1085" type="curve"/>
      <point x="941" y="1640" type="line"/>
      <point x="953" y="1710"/>
      <point x="930" y="1724"/>
      <point x="805" y="1724" type="curve" smooth="yes"/>
      <point x="680" y="1724"/>
      <point x="653" y="1710"/>
      <point x="645" y="1640" type="curve"/>
      <point x="607" y="1085" type="line" smooth="yes"/>
      <point x="603" y="1023"/>
      <point x="613" y="1016"/>
    </contour>
    <component base="L"/>
  </outline>
</glyph>
<glyph name="ldot" format="1">
  <advance width="854"/>
  <unicode hex="0140"/>
  <outline>
    <contour>
      <point x="689" y="734" type="curve" smooth="yes"/>
      <point x="810" y="734"/>
      <point x="827" y="741"/>
      <point x="830" y="791" type="curve" smooth="yes"/>
      <point x="841" y="986" type="line" smooth="yes"/>
      <point x="844" y="1043"/>
      <point x="825" y="1059"/>
      <point x="689" y="1059" type="curve" smooth="yes"/>
      <point x="553" y="1059"/>
      <point x="533" y="1043"/>
      <point x="537" y="986" type="curve" smooth="yes"/>
      <point x="549" y="791" type="line" smooth="yes"/>
      <point x="552" y="741"/>
      <point x="568" y="734"/>
    </contour>
    <component base="l"/>
  </outline>
</glyph>
<glyph name="lslash" format="1">
  <advance width="693"/>
  <unicode hex="0142"/>
  <outline>
    <contour>
      <point x="55" y="826" type="line"/>
      <point x="21" y="805"/>
      <point x="12" y="786"/>
      <point x="12" y="734" type="curve" smooth="yes"/>
      <point x="12" y="665" type="line" smooth="yes"/>
      <point x="12" y="619"/>
      <point x="19" y="606"/>
      <point x="42" y="606" type="curve" smooth="yes"/>
      <point x="59" y="606"/>
      <point x="82" y="617"/>
      <point x="129" y="646" type="curve" smooth="yes"/>
      <point x="640" y="946" type="line" smooth="yes"/>
      <point x="679" y="970"/>
      <point x="687" y="991"/>
      <point x="687" y="1047" type="curve" smooth="yes"/>
      <point x="687" y="1125" type="line" smooth="yes"/>
      <point x="687" y="1175"/>
      <point x="677" y="1186"/>
      <point x="653" y="1186" type="curve" smooth="yes"/>
      <point x="629" y="1186"/>
      <point x="594" y="1161"/>
      <point x="561" y="1140" type="curve" smooth="yes"/>
    </contour>
    <component base="l" xOffset="42"/>
  </outline>
</glyph>
<glyph name="OE" format="1">
  <advance width="1432"/>
  <unicode hex="0152"/>
  <outline>
    <contour>
      <point x="604" y="162" type="line"/>
      <point x="486" y="162"/>
      <point x="440" y="195"/>
      <point x="443" y="307" type="curve" smooth="yes"/>
      <point x="472" y="1387" type="line" smooth="yes"/>
      <point x="475" y="1503"/>
      <point x="519" y="1519"/>
      <point x="604" y="1519" type="curve" smooth="yes"/>
      <point x="901" y="1519" type="line"/>
      <point x="901" y="1690" type="line"/>
      <point x="604" y="1690" type="line" smooth="yes"/>
      <point x="258" y="1690"/>
      <point x="115" y="1555"/>
      <point x="120" y="1355" type="curve" smooth="yes"/>
      <point x="148" y="316" type="line" smooth="yes"/>
      <point x="153" y="142"/>
      <point x="281" y="-1"/>
      <point x="604" y="-1" type="curve"/>
      <point x="879" y="-1" type="line"/>
      <point x="879" y="162" type="line"/>
    </contour>
    <contour>
      <point x="857" y="0" type="curve"/>
      <point x="980" y="0"/>
      <point x="994" y="11"/>
      <point x="996" y="63" type="curve" smooth="yes"/>
      <point x="1039" y="1607" type="line" smooth="yes"/>
      <point x="1041" y="1676"/>
      <point x="1016" y="1690"/>
      <point x="857" y="1690" type="curve" smooth="yes"/>
      <point x="699" y="1690"/>
      <point x="673" y="1676"/>
      <point x="675" y="1607" type="curve" smooth="yes"/>
      <point x="719" y="68" type="line" smooth="yes"/>
      <point x="721" y="7"/>
      <point x="735" y="0"/>
    </contour>
    <contour>
      <point x="858" y="1494" type="line"/>
      <point x="1321" y="1494" type="line" smooth="yes"/>
      <point x="1390" y="1494"/>
      <point x="1392" y="1511"/>
      <point x="1392" y="1592" type="curve" smooth="yes"/>
      <point x="1392" y="1672"/>
      <point x="1390" y="1690"/>
      <point x="1321" y="1690" type="curve" smooth="yes"/>
      <point x="858" y="1690" type="line"/>
    </contour>
    <contour>
      <point x="797" y="689" type="line"/>
      <point x="1259" y="689" type="line" smooth="yes"/>
      <point x="1329" y="689"/>
      <point x="1331" y="706"/>
      <point x="1331" y="784" type="curve" smooth="yes"/>
      <point x="1331" y="862"/>
      <point x="1329" y="879"/>
      <point x="1259" y="879" type="curve" smooth="yes"/>
      <point x="797" y="879" type="line"/>
    </contour>
    <contour>
      <point x="857" y="0" type="line"/>
      <point x="1283" y="0" type="line" smooth="yes"/>
      <point x="1352" y="0"/>
      <point x="1354" y="21"/>
      <point x="1354" y="93" type="curve" smooth="yes"/>
      <point x="1354" y="166"/>
      <point x="1352" y="186"/>
      <point x="1283" y="186" type="curve" smooth="yes"/>
      <point x="857" y="186" type="line"/>
    </contour>
  </outline>
</glyph>
<glyph name="tbar" format="1">
  <advance width="638"/>
  <unicode hex="0167"/>
  <outline>
    <contour>
      <point x="510" y="563" type="line"/>
      <point x="580" y="563"/>
      <point x="582" y="586"/>
      <point x="582" y="660" type="curve" smooth="yes"/>
      <point x="582" y="742"/>
      <point x="580" y="769"/>
      <point x="510" y="769" type="curve" smooth="yes"/>
      <point x="124" y="769" type="line" smooth="yes"/>
      <point x="54" y="769"/>
      <point x="52" y="743"/>
      <point x="52" y="661" type="curve" smooth="yes"/>
      <point x="52" y="587"/>
      <point x="54" y="563"/>
      <point x="124" y="563" type="curve" smooth="yes"/>
    </contour>
    <component base="t"/>
  </outline>
</glyph>
<glyph name="florin" format="1">
  <advance width="635"/>
  <unicode hex="0192"/>
  <outline>
    <contour>
      <point x="707" y="1544" type="line"/>
      <point x="759" y="1544"/>
      <point x="764" y="1567"/>
      <point x="775" y="1634" type="curve" smooth="yes"/>
      <point x="786" y="1708"/>
      <point x="787" y="1724"/>
      <point x="717" y="1724" type="curve" smooth="yes"/>
      <point x="585" y="1724" type="line" smooth="yes"/>
      <point x="375" y="1724"/>
      <point x="251" y="1557"/>
      <point x="227" y="1384" type="curve" smooth="yes"/>
      <point x="48" y="57" type="line" smooth="yes"/>
      <point x="41" y="7"/>
      <point x="57" y="0"/>
      <point x="169" y="0" type="curve" smooth="yes"/>
      <point x="281" y="0"/>
      <point x="300" y="7"/>
      <point x="309" y="57" type="curve" smooth="yes"/>
      <point x="546" y="1413" type="line" smooth="yes"/>
      <point x="565" y="1520"/>
      <point x="627" y="1544"/>
      <point x="667" y="1544" type="curve" smooth="yes"/>
    </contour>
    <contour>
      <point x="545" y="926" type="line"/>
      <point x="615" y="926"/>
      <point x="619" y="944"/>
      <point x="632" y="1026" type="curve" smooth="yes"/>
      <point x="644" y="1100"/>
      <point x="644" y="1116"/>
      <point x="574" y="1116" type="curve" smooth="yes"/>
      <point x="160" y="1116" type="line" smooth="yes"/>
      <point x="90" y="1116"/>
      <point x="86" y="1100"/>
      <point x="74" y="1026" type="curve" smooth="yes"/>
      <point x="61" y="944"/>
      <point x="61" y="926"/>
      <point x="131" y="926" type="curve" smooth="yes"/>
    </contour>
    <contour>
      <point x="349" y="-170" type="move" name="btm"/>
    </contour>
    <contour>
      <point x="349" y="1700" type="move" name="top"/>
    </contour>
  </outline>
</glyph>
<glyph name="uni0259" format="1">
  <advance width="1062"/>
  <unicode hex="0259"/>
  <outline>
    <contour>
      <point x="693" y="718" type="line"/>
      <point x="337" y="718" type="line"/>
      <point x="337" y="568" type="line"/>
      <point x="693" y="568" type="line"/>
    </contour>
    <contour>
      <point x="416" y="943" type="line"/>
      <point x="416" y="1011"/>
      <point x="447" y="1058"/>
      <point x="533" y="1058" type="curve" smooth="yes"/>
      <point x="619" y="1058"/>
      <point x="642" y="1009"/>
      <point x="641" y="927" type="curve" smooth="yes"/>
      <point x="657" y="269" type="line" smooth="yes"/>
      <point x="655" y="156"/>
      <point x="590" y="132"/>
      <point x="524" y="132" type="curve" smooth="yes"/>
      <point x="464" y="132"/>
      <point x="399" y="157"/>
      <point x="397" y="270" type="curve" smooth="yes"/>
      <point x="408" y="718" type="line"/>
      <point x="256" y="718" type="line" smooth="yes"/>
      <point x="136" y="718"/>
      <point x="106" y="711"/>
      <point x="107" y="661" type="curve" smooth="yes"/>
      <point x="121" y="276" type="line" smooth="yes"/>
      <point x="125" y="63"/>
      <point x="302" y="-12"/>
      <point x="514" y="-12" type="curve" smooth="yes"/>
      <point x="736" y="-12"/>
      <point x="917" y="78"/>
      <point x="925" y="291" type="curve" smooth="yes"/>
      <point x="948" y="910" type="line" smooth="yes"/>
      <point x="956" y="1133"/>
      <point x="732" y="1214"/>
      <point x="533" y="1214" type="curve" smooth="yes"/>
      <point x="275" y="1214"/>
      <point x="98" y="1096"/>
      <point x="98" y="934" type="curve" smooth="yes"/>
      <point x="98" y="911" type="line" smooth="yes"/>
      <point x="98" y="861"/>
      <point x="140" y="847"/>
      <point x="258" y="847" type="curve" smooth="yes"/>
      <point x="377" y="847"/>
      <point x="416" y="862"/>
      <point x="416" y="912" type="curve"/>
    </contour>
    <contour>
      <point x="536" y="-170" type="move" name="btm"/>
    </contour>
    <contour>
      <point x="536" y="1700" type="move" name="top"/>
    </contour>
  </outline>
</glyph>
<glyph name="circumflex" format="1">
  <advance width="0"/>
  <unicode hex="02C6"/>
  <outline>
    <contour>
      <point x="-324" y="1524" type="line"/>
      <point x="-352" y="1475"/>
      <point x="-373" y="1449"/>
      <point x="-373" y="1421" type="curve" smooth="yes"/>
      <point x="-373" y="1395"/>
      <point x="-348" y="1382"/>
      <point x="-272" y="1382" type="curve" smooth="yes"/>
      <point x="-188" y="1382"/>
      <point x="-176" y="1396"/>
      <point x="-137" y="1441" type="curve" smooth="yes"/>
      <point x="-39" y="1556" type="line" smooth="yes"/>
      <point x="-23" y="1575"/>
      <point x="-11" y="1585"/>
      <point x="1" y="1585" type="curve" smooth="yes"/>
      <point x="13" y="1585"/>
      <point x="24" y="1575"/>
      <point x="37" y="1560" type="curve" smooth="yes"/>
      <point x="138" y="1441" type="line" smooth="yes"/>
      <point x="176" y="1397"/>
      <point x="190" y="1382"/>
      <point x="271" y="1382" type="curve" smooth="yes"/>
      <point x="347" y="1382"/>
      <point x="373" y="1395"/>
      <point x="373" y="1421" type="curve" smooth="yes"/>
      <point x="373" y="1449"/>
      <point x="354" y="1476"/>
      <point x="324" y="1524" type="curve" smooth="yes"/>
      <point x="201" y="1722" type="line" smooth="yes"/>
      <point x="168" y="1775"/>
      <point x="142" y="1792"/>
      <point x="24" y="1792" type="curve" smooth="yes"/>
      <point x="-24" y="1792" type="line" smooth="yes"/>
      <point x="-142" y="1792"/>
      <point x="-167" y="1775"/>
      <point x="-201" y="1722" type="curve" smooth="yes"/>
    </contour>
    <contour>
      <point x="0" y="1700" type="move" name="_top"/>
    </contour>
  </outline>
</glyph>
<glyph name="dotaccent" format="1">
  <advance width="568"/>
  <unicode hex="02D9"/>
  <outline>
    <contour>
      <point x="286" y="1360" type="curve" smooth="yes"/>
      <point x="416" y="1360"/>
      <point x="436" y="1367"/>
      <point x="437" y="1417" type="curve" smooth="yes"/>
      <point x="448" y="1612" type="line" smooth="yes"/>
      <point x="449" y="1669"/>
      <point x="431" y="1685"/>
      <point x="286" y="1685" type="curve" smooth="yes"/>
      <point x="141" y="1685"/>
      <point x="123" y="1669"/>
      <point x="124" y="1612" type="curve" smooth="yes"/>
      <point x="136" y="1417" type="line" smooth="yes"/>
      <point x="137" y="1367"/>
      <point x="156" y="1360"/>
    </contour>
    <contour>
      <point x="286" y="-170" type="move" name="btm"/>
    </contour>
    <contour>
      <point x="286" y="1700" type="move" name="_top"/>
    </contour>
  </outline>
</glyph>
<glyph name="ring" format="1">
  <advance width="0"/>
  <unicode hex="02DA"/>
  <outline>
    <contour>
      <point x="-285" y="1599" type="line"/>
      <point x="-285" y="1738"/>
      <point x="-159" y="1800"/>
      <point x="-1" y="1800" type="curve" smooth="yes"/>
      <point x="157" y="1800"/>
      <point x="283" y="1738"/>
      <point x="283" y="1599" type="curve" smooth="yes"/>
      <point x="283" y="1542" type="line" smooth="yes"/>
      <point x="283" y="1403"/>
      <point x="157" y="1341"/>
      <point x="-1" y="1341" type="curve" smooth="yes"/>
      <point x="-159" y="1341"/>
      <point x="-285" y="1403"/>
      <point x="-285" y="1542" type="curve" smooth="yes"/>
    </contour>
    <contour>
      <point x="89" y="1598" type="line"/>
      <point x="89" y="1649"/>
      <point x="60" y="1680"/>
      <point x="-1" y="1680" type="curve" smooth="yes"/>
      <point x="-62" y="1680"/>
      <point x="-91" y="1649"/>
      <point x="-91" y="1598" type="curve" smooth="yes"/>
      <point x="-91" y="1543" type="line" smooth="yes"/>
      <point x="-91" y="1492"/>
      <point x="-62" y="1461"/>
      <point x="-1" y="1461" type="curve" smooth="yes"/>
      <point x="60" y="1461"/>
      <point x="89" y="1492"/>
      <point x="89" y="1543" type="curve" smooth="yes"/>
    </contour>
    <contour>
      <point x="0" y="1700" type="move" name="_top"/>
    </contour>
  </outline>
</glyph>
<glyph name="tilde" format="1">
  <advance width="0"/>
  <unicode hex="02DC"/>
  <outline>
    <contour>
      <point x="169" y="1382" type="line"/>
      <point x="230" y="1382"/>
      <point x="252" y="1395"/>
      <point x="282" y="1448" type="curve" smooth="yes"/>
      <point x="387" y="1633" type="line" smooth="yes"/>
      <point x="407" y="1668"/>
      <point x="415" y="1692"/>
      <point x="415" y="1712" type="curve" smooth="yes"/>
      <point x="415" y="1741"/>
      <point x="385" y="1743"/>
      <point x="305" y="1743" type="curve" smooth="yes"/>
      <point x="219" y="1743"/>
      <point x="212" y="1739"/>
      <point x="192" y="1698" type="curve" smooth="yes"/>
      <point x="160" y="1631" type="line" smooth="yes"/>
      <point x="146" y="1601"/>
      <point x="135" y="1580"/>
      <point x="122" y="1580" type="curve" smooth="yes"/>
      <point x="110" y="1580"/>
      <point x="96" y="1597"/>
      <point x="82" y="1612" type="curve" smooth="yes"/>
      <point x="0" y="1699" type="line" smooth="yes"/>
      <point x="-29" y="1730"/>
      <point x="-43" y="1743"/>
      <point x="-105" y="1743" type="curve" smooth="yes"/>
      <point x="-151" y="1743" type="line" smooth="yes"/>
      <point x="-217" y="1743"/>
      <point x="-243" y="1739"/>
      <point x="-270" y="1685" type="curve" smooth="yes"/>
      <point x="-370" y="1486" type="line" smooth="yes"/>
      <point x="-387" y="1452"/>
      <point x="-396" y="1433"/>
      <point x="-396" y="1415" type="curve" smooth="yes"/>
      <point x="-396" y="1390"/>
      <point x="-375" y="1382"/>
      <point x="-316" y="1382" type="curve" smooth="yes"/>
      <point x="-233" y="1382"/>
      <point x="-224" y="1385"/>
      <point x="-199" y="1428" type="curve" smooth="yes"/>
      <point x="-166" y="1485" type="line" smooth="yes"/>
      <point x="-149" y="1514"/>
      <point x="-142" y="1526"/>
      <point x="-128" y="1526" type="curve" smooth="yes"/>
      <point x="-119" y="1526"/>
      <point x="-111" y="1518"/>
      <point x="-88" y="1495" type="curve" smooth="yes"/>
      <point x="-29" y="1435" type="line" smooth="yes"/>
      <point x="18" y="1387"/>
      <point x="38" y="1382"/>
      <point x="96" y="1382" type="curve" smooth="yes"/>
    </contour>
    <contour>
      <point x="0" y="1700" type="move" name="_top"/>
    </contour>
  </outline>
</glyph>
<glyph name="hungarumlaut" format="1">
  <advance width="0"/>
  <unicode hex="02DD"/>
  <outline>
    <contour>
      <point x="-208" y="1522" type="line"/>
      <point x="-235" y="1472"/>
      <point x="-257" y="1444"/>
      <point x="-257" y="1419" type="curve" smooth="yes"/>
      <point x="-257" y="1393"/>
      <point x="-229" y="1382"/>
      <point x="-161" y="1382" type="curve" smooth="yes"/>
      <point x="-65" y="1382"/>
      <point x="-59" y="1393"/>
      <point x="-22" y="1441" type="curve" smooth="yes"/>
      <point x="150" y="1667" type="line" smooth="yes"/>
      <point x="174" y="1698"/>
      <point x="192" y="1724"/>
      <point x="192" y="1745" type="curve" smooth="yes"/>
      <point x="192" y="1772"/>
      <point x="168" y="1784"/>
      <point x="58" y="1784" type="curve" smooth="yes"/>
      <point x="-53" y="1784"/>
      <point x="-73" y="1775"/>
      <point x="-101" y="1722" type="curve" smooth="yes"/>
    </contour>
    <contour>
      <point x="177" y="1522" type="line" smooth="yes"/>
      <point x="150" y="1472"/>
      <point x="128" y="1444"/>
      <point x="128" y="1419" type="curve" smooth="yes"/>
      <point x="128" y="1393"/>
      <point x="156" y="1382"/>
      <point x="224" y="1382" type="curve" smooth="yes"/>
      <point x="320" y="1382"/>
      <point x="326" y="1393"/>
      <point x="363" y="1441" type="curve" smooth="yes"/>
      <point x="535" y="1667" type="line" smooth="yes"/>
      <point x="559" y="1698"/>
      <point x="577" y="1724"/>
      <point x="577" y="1745" type="curve" smooth="yes"/>
      <point x="577" y="1772"/>
      <point x="553" y="1784"/>
      <point x="443" y="1784" type="curve" smooth="yes"/>
      <point x="332" y="1784"/>
      <point x="312" y="1775"/>
      <point x="284" y="1722" type="curve" smooth="yes"/>
    </contour>
    <contour>
      <point x="0" y="1700" type="move" name="_top"/>
    </contour>
  </outline>
</glyph>
<glyph name="uni03BC" format="1">
  <advance width="1092"/>
  <unicode hex="03BC"/>
  <outline>
    <contour>
      <point x="842" y="0" type="curve" smooth="yes"/>
      <point x="933" y="0"/>
      <point x="935" y="7"/>
      <point x="936" y="57" type="curve" smooth="yes"/>
      <point x="977" y="1129" type="line" smooth="yes"/>
      <point x="979" y="1186"/>
      <point x="960" y="1202"/>
      <point x="815" y="1202" type="curve" smooth="yes"/>
      <point x="688" y="1202"/>
      <point x="671" y="1186"/>
      <point x="673" y="1129" type="curve" smooth="yes"/>
      <point x="702" y="126" type="line"/>
      <point x="726" y="126" type="line"/>
      <point x="726" y="57"/>
      <point x="754" y="0"/>
    </contour>
    <contour>
      <point x="252" y="-354" type="curve" smooth="yes"/>
      <point x="344" y="-354"/>
      <point x="358" y="-323"/>
      <point x="358" y="-247" type="curve" smooth="yes"/>
      <point x="358" y="124" type="line"/>
      <point x="396" y="171" type="line"/>
      <point x="419" y="1129" type="line" smooth="yes"/>
      <point x="420" y="1186"/>
      <point x="403" y="1202"/>
      <point x="267" y="1202" type="curve" smooth="yes"/>
      <point x="122" y="1202"/>
      <point x="103" y="1186"/>
      <point x="105" y="1129" type="curve" smooth="yes"/>
      <point x="148" y="-247" type="line" smooth="yes"/>
      <point x="150" y="-323"/>
      <point x="164" y="-354"/>
    </contour>
    <contour>
      <point x="535" y="192" type="curve" smooth="yes"/>
      <point x="447" y="192"/>
      <point x="397" y="242"/>
      <point x="367" y="287" type="curve"/>
      <point x="314" y="184" type="line"/>
      <point x="352" y="90" type="line"/>
      <point x="368" y="90" type="line"/>
      <point x="415" y="36"/>
      <point x="473" y="0"/>
      <point x="535" y="0" type="curve" smooth="yes"/>
      <point x="623" y="0"/>
      <point x="685" y="61"/>
      <point x="749" y="184" type="curve"/>
      <point x="702" y="261" type="line"/>
      <point x="664" y="224"/>
      <point x="615" y="192"/>
    </contour>
    <contour>
      <point x="991" y="0" type="line"/>
      <point x="1061" y="0"/>
      <point x="1063" y="18"/>
      <point x="1063" y="100" type="curve" smooth="yes"/>
      <point x="1063" y="174"/>
      <point x="1061" y="190"/>
      <point x="991" y="190" type="curve" smooth="yes"/>
      <point x="857" y="190" type="line"/>
      <point x="857" y="0" type="line"/>
    </contour>
  </outline>
</glyph>
<glyph name="ellipsis" format="1">
  <advance width="1800"/>
  <unicode hex="2026"/>
  <outline>
    <contour>
      <point x="300" y="0" type="curve" smooth="yes"/>
      <point x="430" y="0"/>
      <point x="448" y="7"/>
      <point x="451" y="57" type="curve" smooth="yes"/>
      <point x="462" y="252" type="line" smooth="yes"/>
      <point x="465" y="309"/>
      <point x="445" y="325"/>
      <point x="300" y="325" type="curve" smooth="yes"/>
      <point x="155" y="325"/>
      <point x="134" y="309"/>
      <point x="138" y="252" type="curve" smooth="yes"/>
      <point x="150" y="57" type="line" smooth="yes"/>
      <point x="153" y="7"/>
      <point x="170" y="0"/>
    </contour>
    <contour>
      <point x="900" y="0" type="curve" smooth="yes"/>
      <point x="1030" y="0"/>
      <point x="1048" y="7"/>
      <point x="1051" y="57" type="curve" smooth="yes"/>
      <point x="1062" y="252" type="line" smooth="yes"/>
      <point x="1065" y="309"/>
      <point x="1045" y="325"/>
      <point x="900" y="325" type="curve" smooth="yes"/>
      <point x="755" y="325"/>
      <point x="734" y="309"/>
      <point x="738" y="252" type="curve" smooth="yes"/>
      <point x="750" y="57" type="line" smooth="yes"/>
      <point x="753" y="7"/>
      <point x="770" y="0"/>
    </contour>
    <contour>
      <point x="1500" y="0" type="curve" smooth="yes"/>
      <point x="1630" y="0"/>
      <point x="1648" y="7"/>
      <point x="1651" y="57" type="curve" smooth="yes"/>
      <point x="1662" y="252" type="line" smooth="yes"/>
      <point x="1665" y="309"/>
      <point x="1645" y="325"/>
      <point x="1500" y="325" type="curve" smooth="yes"/>
      <point x="1355" y="325"/>
      <point x="1334" y="309"/>
      <point x="1338" y="252" type="curve" smooth="yes"/>
      <point x="1350" y="57" type="line" smooth="yes"/>
      <point x="1353" y="7"/>
      <point x="1370" y="0"/>
    </contour>
  </outline>
</glyph>
<glyph name="minute" format="1">
  <advance width="498"/>
  <unicode hex="2032"/>
  <outline>
    <contour>
      <point x="199" y="1016" type="curve" smooth="yes"/>
      <point x="291" y="1016"/>
      <point x="303" y="1023"/>
      <point x="317" y="1085" type="curve" smooth="yes"/>
      <point x="435" y="1640" type="line" smooth="yes"/>
      <point x="447" y="1710"/>
      <point x="424" y="1724"/>
      <point x="299" y="1724" type="curve" smooth="yes"/>
      <point x="174" y="1724"/>
      <point x="147" y="1710"/>
      <point x="139" y="1640" type="curve" smooth="yes"/>
      <point x="101" y="1085" type="line" smooth="yes"/>
      <point x="97" y="1023"/>
      <point x="107" y="1016"/>
    </contour>
  </outline>
</glyph>
<glyph name="Euro" format="1">
  <advance width="1271"/>
  <unicode hex="20AC"/>
  <outline>
    <contour>
      <point x="882" y="432" type="line"/>
      <point x="952" y="432"/>
      <point x="954" y="453"/>
      <point x="954" y="518" type="curve" smooth="yes"/>
      <point x="954" y="583"/>
      <point x="952" y="605"/>
      <point x="882" y="605" type="curve" smooth="yes"/>
      <point x="162" y="605" type="line" smooth="yes"/>
      <point x="92" y="605"/>
      <point x="90" y="583"/>
      <point x="90" y="519" type="curve" smooth="yes"/>
      <point x="90" y="454"/>
      <point x="92" y="432"/>
      <point x="162" y="432" type="curve" smooth="yes"/>
    </contour>
    <contour>
      <point x="903" y="755" type="line"/>
      <point x="973" y="755"/>
      <point x="975" y="775"/>
      <point x="975" y="840" type="curve" smooth="yes"/>
      <point x="975" y="912"/>
      <point x="973" y="937"/>
      <point x="903" y="937" type="curve" smooth="yes"/>
      <point x="186" y="937" type="line" smooth="yes"/>
      <point x="116" y="937"/>
      <point x="114" y="913"/>
      <point x="114" y="841" type="curve" smooth="yes"/>
      <point x="114" y="776"/>
      <point x="116" y="755"/>
      <point x="186" y="755" type="curve" smooth="yes"/>
    </contour>
    <contour>
      <point x="700" y="193" type="line"/>
      <point x="581" y="193"/>
      <point x="534" y="212"/>
      <point x="537" y="323" type="curve" smooth="yes"/>
      <point x="567" y="1391" type="line" smooth="yes"/>
      <point x="570" y="1508"/>
      <point x="610" y="1524"/>
      <point x="690" y="1524" type="curve" smooth="yes"/>
      <point x="770" y="1524"/>
      <point x="807" y="1508"/>
      <point x="813" y="1391" type="curve" smooth="yes"/>
      <point x="820" y="1177" type="line" smooth="yes"/>
      <point x="824" y="1095"/>
      <point x="856" y="1085"/>
      <point x="974" y="1085" type="curve" smooth="yes"/>
      <point x="1091" y="1085"/>
      <point x="1125" y="1095"/>
      <point x="1130" y="1177" type="curve" smooth="yes"/>
      <point x="1141" y="1360" type="line" smooth="yes"/>
      <point x="1153" y="1560"/>
      <point x="1018" y="1696"/>
      <point x="690" y="1696" type="curve" smooth="yes"/>
      <point x="362" y="1696"/>
      <point x="229" y="1560"/>
      <point x="234" y="1360" type="curve" smooth="yes"/>
      <point x="262" y="289" type="line" smooth="yes"/>
      <point x="267" y="122"/>
      <point x="402" y="0"/>
      <point x="700" y="0" type="curve" smooth="yes"/>
      <point x="998" y="0" type="line" smooth="yes"/>
      <point x="1068" y="0"/>
      <point x="1070" y="24"/>
      <point x="1070" y="96" type="curve" smooth="yes"/>
      <point x="1070" y="169"/>
      <point x="1068" y="193"/>
      <point x="998" y="193" type="curve" smooth="yes"/>
    </contour>
  </outline>
</glyph>
<glyph name="afii61352" format="1">
  <advance width="2315"/>
  <unicode hex="2116"/>
  <outline>
    <contour>
      <point x="451" y="1646" type="line"/>
      <point x="283" y="1518" type="line"/>
      <point x="866" y="28" type="line"/>
      <point x="1002" y="146" type="line"/>
    </contour>
    <contour>
      <point x="323" y="0" type="curve" smooth="yes"/>
      <point x="428" y="0"/>
      <point x="440" y="7"/>
      <point x="442" y="68" type="curve" smooth="yes"/>
      <point x="455" y="1607" type="line" smooth="yes"/>
      <point x="457" y="1676"/>
      <point x="433" y="1690"/>
      <point x="302" y="1690" type="curve" smooth="yes"/>
      <point x="162" y="1690"/>
      <point x="142" y="1676"/>
      <point x="144" y="1607" type="curve" smooth="yes"/>
      <point x="187" y="68" type="line" smooth="yes"/>
      <point x="189" y="7"/>
      <point x="204" y="0"/>
    </contour>
    <contour>
      <point x="965" y="0" type="curve" smooth="yes"/>
      <point x="1070" y="0"/>
      <point x="1082" y="37"/>
      <point x="1084" y="98" type="curve" smooth="yes"/>
      <point x="1128" y="1607" type="line" smooth="yes"/>
      <point x="1130" y="1676"/>
      <point x="1107" y="1690"/>
      <point x="949" y="1690" type="curve" smooth="yes"/>
      <point x="808" y="1690"/>
      <point x="784" y="1676"/>
      <point x="786" y="1607" type="curve" smooth="yes"/>
      <point x="860" y="68" type="line" smooth="yes"/>
      <point x="862" y="7"/>
      <point x="896" y="0"/>
    </contour>
    <contour>
      <point x="433" y="1063" type="line"/>
      <point x="518" y="1063" type="line"/>
      <point x="518" y="1120" type="line"/>
      <point x="433" y="1120" type="line"/>
    </contour>
    <contour>
      <point x="787" y="569" type="line"/>
      <point x="872" y="569" type="line"/>
      <point x="872" y="627" type="line"/>
      <point x="787" y="627" type="line"/>
    </contour>
    <contour>
      <point x="1764" y="1684" type="curve" smooth="yes"/>
      <point x="1542" y="1684"/>
      <point x="1326" y="1593"/>
      <point x="1334" y="1380" type="curve" smooth="yes"/>
      <point x="1357" y="746" type="line" smooth="yes"/>
      <point x="1365" y="528"/>
      <point x="1558" y="458"/>
      <point x="1765" y="458" type="curve" smooth="yes"/>
      <point x="1970" y="458"/>
      <point x="2163" y="529"/>
      <point x="2171" y="747" type="curve" smooth="yes"/>
      <point x="2194" y="1380" type="line" smooth="yes"/>
      <point x="2202" y="1593"/>
      <point x="1986" y="1684"/>
    </contour>
    <contour>
      <point x="1764" y="602" type="curve" smooth="yes"/>
      <point x="1671" y="602"/>
      <point x="1628" y="636"/>
      <point x="1631" y="738" type="curve" smooth="yes"/>
      <point x="1651" y="1397" type="line" smooth="yes"/>
      <point x="1654" y="1510"/>
      <point x="1698" y="1528"/>
      <point x="1764" y="1528" type="curve" smooth="yes"/>
      <point x="1830" y="1528"/>
      <point x="1874" y="1510"/>
      <point x="1877" y="1397" type="curve" smooth="yes"/>
      <point x="1897" y="739" type="line" smooth="yes"/>
      <point x="1900" y="637"/>
      <point x="1857" y="602"/>
    </contour>
    <component base="period" xOffset="1467"/>
  </outline>
</glyph>
<glyph name="uni2117" format="1">
  <advance width="1865"/>
  <unicode hex="2117"/>
  <outline>
    <contour>
      <point x="738" y="741" type="line"/>
      <point x="1028" y="741" type="line" smooth="yes"/>
      <point x="1222" y="741"/>
      <point x="1281" y="837"/>
      <point x="1285" y="952" type="curve" smooth="yes"/>
      <point x="1301" y="1171" type="line" smooth="yes"/>
      <point x="1308" y="1367"/>
      <point x="1202" y="1438"/>
      <point x="1025" y="1438" type="curve" smooth="yes"/>
      <point x="743" y="1438" type="line"/>
      <point x="743" y="1301" type="line"/>
      <point x="938" y="1301" type="line" smooth="yes"/>
      <point x="1013" y="1301"/>
      <point x="1028" y="1282"/>
      <point x="1031" y="1222" type="curve" smooth="yes"/>
      <point x="1033" y="947" type="line" smooth="yes"/>
      <point x="1036" y="882"/>
      <point x="1013" y="853"/>
      <point x="939" y="853" type="curve" smooth="yes"/>
      <point x="738" y="853" type="line"/>
    </contour>
    <contour>
      <point x="880" y="1368" type="line"/>
      <point x="881" y="1425"/>
      <point x="862" y="1438"/>
      <point x="743" y="1438" type="curve" smooth="yes"/>
      <point x="625" y="1438"/>
      <point x="605" y="1424"/>
      <point x="606" y="1367" type="curve" smooth="yes"/>
      <point x="628" y="508" type="line" smooth="yes"/>
      <point x="629" y="458"/>
      <point x="652" y="450"/>
      <point x="744" y="450" type="curve" smooth="yes"/>
      <point x="836" y="450"/>
      <point x="857" y="458"/>
      <point x="858" y="508" type="curve" smooth="yes"/>
    </contour>
    <contour>
      <point x="932" y="1897" type="curve" smooth="yes"/>
      <point x="517" y="1897"/>
      <point x="146" y="1709"/>
      <point x="151" y="1299" type="curve" smooth="yes"/>
      <point x="159" y="643" type="line" smooth="yes"/>
      <point x="164" y="224"/>
      <point x="501" y="71"/>
      <point x="932" y="71" type="curve" smooth="yes"/>
      <point x="1364" y="71"/>
      <point x="1701" y="224"/>
      <point x="1706" y="643" type="curve" smooth="yes"/>
      <point x="1714" y="1299" type="line" smooth="yes"/>
      <point x="1719" y="1709"/>
      <point x="1348" y="1897"/>
    </contour>
    <contour>
      <point x="932" y="221" type="curve" smooth="yes"/>
      <point x="640" y="221"/>
      <point x="363" y="324"/>
      <point x="367" y="643" type="curve" smooth="yes"/>
      <point x="375" y="1275" type="line" smooth="yes"/>
      <point x="379" y="1594"/>
      <point x="625" y="1697"/>
      <point x="932" y="1697" type="curve" smooth="yes"/>
      <point x="1240" y="1697"/>
      <point x="1486" y="1594"/>
      <point x="1490" y="1275" type="curve" smooth="yes"/>
      <point x="1498" y="643" type="line" smooth="yes"/>
      <point x="1502" y="324"/>
      <point x="1225" y="221"/>
    </contour>
  </outline>
</glyph>
<glyph name="minus" format="1">
  <advance width="878"/>
  <unicode hex="2212"/>
  <outline>
    <contour>
      <point x="776" y="660" type="line"/>
      <point x="844" y="660"/>
      <point x="848" y="681"/>
      <point x="848" y="759" type="curve" smooth="yes"/>
      <point x="848" y="845"/>
      <point x="844" y="870"/>
      <point x="776" y="870" type="curve" smooth="yes"/>
      <point x="102" y="870" type="line" smooth="yes"/>
      <point x="34" y="870"/>
      <point x="30" y="846"/>
      <point x="30" y="760" type="curve" smooth="yes"/>
      <point x="30" y="682"/>
      <point x="34" y="660"/>
      <point x="102" y="660" type="curve" smooth="yes"/>
    </contour>
  </outline>
</glyph>
<glyph name="commaaccent" format="1">
  <advance width="0"/>
  <unicode hex="F6C3"/>
  <outline>
    <contour>
      <point x="-118" y="-417" type="curve" smooth="yes"/>
      <point x="-118" y="-433"/>
      <point x="-98" y="-442"/>
      <point x="-73" y="-442" type="curve" smooth="yes"/>
      <point x="9" y="-442" type="line" smooth="yes"/>
      <point x="48" y="-442"/>
      <point x="64" y="-433"/>
      <point x="92" y="-394" type="curve" smooth="yes"/>
      <point x="172" y="-283" type="line" smooth="yes"/>
      <point x="200" y="-244"/>
      <point x="202" y="-215"/>
      <point x="202" y="-186" type="curve" smooth="yes"/>
      <point x="202" y="-138" type="line" smooth="yes"/>
      <point x="202" y="-85"/>
      <point x="184" y="-73"/>
      <point x="53" y="-73" type="curve" smooth="yes"/>
      <point x="-115" y="-73"/>
      <point x="-156" y="-87"/>
      <point x="-156" y="-138" type="curve" smooth="yes"/>
      <point x="-156" y="-215" type="line" smooth="yes"/>
      <point x="-156" y="-243"/>
      <point x="-143" y="-270"/>
      <point x="-103" y="-270" type="curve" smooth="yes"/>
      <point x="-51" y="-270" type="line"/>
      <point x="-92" y="-352" type="line" smooth="yes"/>
      <point x="-104" y="-377"/>
      <point x="-118" y="-397"/>
    </contour>
    <contour>
      <point x="0" y="-170" type="move" name="_btm"/>
    </contour>
  </outline>
</glyph>
<glyph name="acute.cap" format="1">
  <advance width="0"/>
  <outline>
    <contour>
      <point x="-63" y="1910" type="line"/>
      <point x="-91" y="1861"/>
      <point x="-117" y="1827"/>
      <point x="-117" y="1804" type="curve" smooth="yes"/>
      <point x="-117" y="1778"/>
      <point x="-87" y="1770"/>
      <point x="-19" y="1770" type="curve" smooth="yes"/>
      <point x="77" y="1770"/>
      <point x="83" y="1780"/>
      <point x="121" y="1827" type="curve" smooth="yes"/>
      <point x="265" y="2005" type="line" smooth="yes"/>
      <point x="290" y="2037"/>
      <point x="310" y="2062"/>
      <point x="310" y="2083" type="curve" smooth="yes"/>
      <point x="310" y="2110"/>
      <point x="280" y="2118"/>
      <point x="178" y="2118" type="curve" smooth="yes"/>
      <point x="65" y="2118"/>
      <point x="49" y="2109"/>
      <point x="19" y="2056" type="curve" smooth="yes"/>
    </contour>
    <contour>
      <point x="0" y="1700" type="move" name="_top"/>
    </contour>
  </outline>
</glyph>
<glyph name="breve.cap" format="1">
  <advance width="0"/>
  <outline>
    <contour>
      <point x="-129" y="2056" type="curve" smooth="yes"/>
      <point x="-129" y="2117"/>
      <point x="-187" y="2118"/>
      <point x="-275" y="2118" type="curve" smooth="yes"/>
      <point x="-377" y="2118"/>
      <point x="-376" y="2088"/>
      <point x="-376" y="2061" type="curve" smooth="yes"/>
      <point x="-376" y="1876"/>
      <point x="-200" y="1776"/>
      <point x="-9" y="1776" type="curve" smooth="yes"/>
      <point x="8" y="1776" type="line" smooth="yes"/>
      <point x="200" y="1776"/>
      <point x="378" y="1835"/>
      <point x="378" y="2061" type="curve" smooth="yes"/>
      <point x="378" y="2088"/>
      <point x="379" y="2118"/>
      <point x="277" y="2118" type="curve" smooth="yes"/>
      <point x="186" y="2118"/>
      <point x="133" y="2116"/>
      <point x="133" y="2056" type="curve" smooth="yes"/>
      <point x="133" y="1988"/>
      <point x="100" y="1957"/>
      <point x="1" y="1957" type="curve" smooth="yes"/>
      <point x="-100" y="1957"/>
      <point x="-129" y="1989"/>
    </contour>
    <contour>
      <point x="0" y="1700" type="move" name="_top"/>
    </contour>
  </outline>
</glyph>
<glyph name="dieresis.cap" format="1">
  <advance width="0"/>
  <outline>
    <contour>
      <point x="-223" y="1817" type="curve" smooth="yes"/>
      <point x="-111" y="1817"/>
      <point x="-95" y="1824"/>
      <point x="-92" y="1874" type="curve" smooth="yes"/>
      <point x="-81" y="2037" type="line" smooth="yes"/>
      <point x="-78" y="2094"/>
      <point x="-96" y="2110"/>
      <point x="-223" y="2110" type="curve" smooth="yes"/>
      <point x="-350" y="2110"/>
      <point x="-369" y="2094"/>
      <point x="-365" y="2037" type="curve" smooth="yes"/>
      <point x="-353" y="1874" type="line" smooth="yes"/>
      <point x="-350" y="1824"/>
      <point x="-335" y="1817"/>
    </contour>
    <contour>
      <point x="223" y="1817" type="curve" smooth="yes"/>
      <point x="335" y="1817"/>
      <point x="351" y="1824"/>
      <point x="354" y="1874" type="curve" smooth="yes"/>
      <point x="365" y="2037" type="line" smooth="yes"/>
      <point x="368" y="2094"/>
      <point x="350" y="2110"/>
      <point x="223" y="2110" type="curve" smooth="yes"/>
      <point x="96" y="2110"/>
      <point x="77" y="2094"/>
      <point x="81" y="2037" type="curve" smooth="yes"/>
      <point x="93" y="1874" type="line" smooth="yes"/>
      <point x="96" y="1824"/>
      <point x="111" y="1817"/>
    </contour>
    <contour>
      <point x="0" y="1700" type="move" name="_top"/>
    </contour>
  </outline>
</glyph>
<glyph name="f_f_i_dflt" format="1">
  <advance width="1838"/>
  <outline>
    <contour>
      <point x="1554" y="0" type="curve" smooth="yes"/>
      <point x="1666" y="0"/>
      <point x="1684" y="7"/>
      <point x="1685" y="57" type="curve" smooth="yes"/>
      <point x="1716" y="1129" type="line" smooth="yes"/>
      <point x="1717" y="1186"/>
      <point x="1699" y="1202"/>
      <point x="1554" y="1202" type="curve" smooth="yes"/>
      <point x="1409" y="1202"/>
      <point x="1391" y="1186"/>
      <point x="1392" y="1129" type="curve" smooth="yes"/>
      <point x="1424" y="57" type="line" smooth="yes"/>
      <point x="1425" y="7"/>
      <point x="1442" y="0"/>
    </contour>
    <component base="f"/>
    <component base="f" xOffset="635"/>
  </outline>
</glyph>
<glyph name="f_i_trk" format="1">
  <advance width="1203"/>
  <outline>
    <contour>
      <point x="919" y="0" type="curve" smooth="yes"/>
      <point x="1031" y="0"/>
      <point x="1049" y="7"/>
      <point x="1050" y="57" type="curve" smooth="yes"/>
      <point x="1081" y="1129" type="line" smooth="yes"/>
      <point x="1082" y="1186"/>
      <point x="1064" y="1202"/>
      <point x="919" y="1202" type="curve" smooth="yes"/>
      <point x="774" y="1202"/>
      <point x="756" y="1186"/>
      <point x="757" y="1129" type="curve" smooth="yes"/>
      <point x="789" y="57" type="line" smooth="yes"/>
      <point x="790" y="7"/>
      <point x="807" y="0"/>
    </contour>
    <component base="f"/>
  </outline>
</glyph>
<glyph name="ring.cap" format="1">
  <advance width="0"/>
  <outline>
    <contour>
      <point x="-314" y="1844" type="line"/>
      <point x="-314" y="1705"/>
      <point x="-176" y="1643"/>
      <point x="0" y="1643" type="curve" smooth="yes"/>
      <point x="176" y="1643"/>
      <point x="314" y="1705"/>
      <point x="314" y="1844" type="curve" smooth="yes"/>
      <point x="314" y="1917" type="line" smooth="yes"/>
      <point x="314" y="2056"/>
      <point x="176" y="2118"/>
      <point x="0" y="2118" type="curve" smooth="yes"/>
      <point x="-176" y="2118"/>
      <point x="-314" y="2056"/>
      <point x="-314" y="1917" type="curve"/>
    </contour>
    <contour>
      <point x="100" y="1845" type="line"/>
      <point x="100" y="1794"/>
      <point x="68" y="1763"/>
      <point x="0" y="1763" type="curve" smooth="yes"/>
      <point x="-68" y="1763"/>
      <point x="-100" y="1794"/>
      <point x="-100" y="1845" type="curve" smooth="yes"/>
      <point x="-100" y="1916" type="line" smooth="yes"/>
      <point x="-100" y="1967"/>
      <point x="-68" y="1998"/>
      <point x="0" y="1998" type="curve" smooth="yes"/>
      <point x="68" y="1998"/>
      <point x="100" y="1967"/>
      <point x="100" y="1916" type="curve"/>
    </contour>
    <contour>
      <point x="0" y="1700" type="move" name="_top"/>
    </contour>
  </outline>
</glyph>
<glyph name="tilde.cap" format="1">
  <advance width="0"/>
  <outline>
    <contour>
      <point x="185" y="1781" type="line"/>
      <point x="246" y="1781"/>
      <point x="270" y="1792"/>
      <point x="294" y="1840" type="curve" smooth="yes"/>
      <point x="379" y="2008" type="line" smooth="yes"/>
      <point x="397" y="2044"/>
      <point x="407" y="2067"/>
      <point x="407" y="2087" type="curve" smooth="yes"/>
      <point x="407" y="2116"/>
      <point x="377" y="2118"/>
      <point x="297" y="2118" type="curve" smooth="yes"/>
      <point x="211" y="2118"/>
      <point x="200" y="2117"/>
      <point x="184" y="2073" type="curve" smooth="yes"/>
      <point x="162" y="2012" type="line" smooth="yes"/>
      <point x="149" y="1977"/>
      <point x="140" y="1967"/>
      <point x="127" y="1967" type="curve" smooth="yes"/>
      <point x="112" y="1967"/>
      <point x="96" y="1982"/>
      <point x="71" y="2007" type="curve" smooth="yes"/>
      <point x="7" y="2074" type="line" smooth="yes"/>
      <point x="-23" y="2104"/>
      <point x="-37" y="2118"/>
      <point x="-99" y="2118" type="curve" smooth="yes"/>
      <point x="-157" y="2118" type="line" smooth="yes"/>
      <point x="-214" y="2118"/>
      <point x="-251" y="2116"/>
      <point x="-276" y="2060" type="curve" smooth="yes"/>
      <point x="-354" y="1883" type="line" smooth="yes"/>
      <point x="-368" y="1852"/>
      <point x="-378" y="1833"/>
      <point x="-378" y="1815" type="curve" smooth="yes"/>
      <point x="-378" y="1790"/>
      <point x="-357" y="1782"/>
      <point x="-298" y="1782" type="curve" smooth="yes"/>
      <point x="-215" y="1782"/>
      <point x="-203" y="1783"/>
      <point x="-182" y="1823" type="curve" smooth="yes"/>
      <point x="-157" y="1871" type="line" smooth="yes"/>
      <point x="-140" y="1903"/>
      <point x="-133" y="1914"/>
      <point x="-119" y="1914" type="curve" smooth="yes"/>
      <point x="-111" y="1914"/>
      <point x="-105" y="1913"/>
      <point x="-82" y="1890" type="curve" smooth="yes"/>
      <point x="-25" y="1834" type="line" smooth="yes"/>
      <point x="23" y="1786"/>
      <point x="40" y="1781"/>
      <point x="98" y="1781" type="curve" smooth="yes"/>
    </contour>
    <contour>
      <point x="0" y="1700" type="move" name="_top"/>
    </contour>
  </outline>
</glyph>
